<?xml version="1.0" encoding="UTF-8" standalone="no"?>
<svg
   version="1.1"
   width="1091"
   height="1085"
   id="svg66"
   sodipodi:docname="logo_H-CEL.svg"
   inkscape:export-filename="logo_H-CEL_no_background.svg"
   inkscape:export-xdpi="96"
   inkscape:export-ydpi="96"
   xmlns:inkscape="http://www.inkscape.org/namespaces/inkscape"
   xmlns:sodipodi="http://sodipodi.sourceforge.net/DTD/sodipodi-0.dtd"
   xmlns="http://www.w3.org/2000/svg"
   xmlns:svg="http://www.w3.org/2000/svg">
  <defs
     id="defs66" />
  <sodipodi:namedview
     id="namedview66"
     pagecolor="#ffffff"
     bordercolor="#000000"
     borderopacity="0.25"
     inkscape:showpageshadow="2"
     inkscape:pageopacity="0.0"
     inkscape:pagecheckerboard="0"
     inkscape:deskcolor="#d1d1d1"
     inkscape:export-bgcolor="#ffffff00" />
  <path
     d="m 370.93896,278.64502 c 2.38674,0.41108 4.77995,0.76834 7.17432,1.13232 16.71767,2.69669 32.40554,7.07073 43.27343,21 5.54746,8.76458 6.77805,19.10238 5.61329,29.22266 -2.66718,10.22419 -7.34942,18.79833 -16,25 -3.50849,1.98169 -7.09508,3.80101 -10.6875,5.625 -2.07634,1.07133 -4.15186,2.14427 -6.22657,3.21875 -1.02899,0.53238 -2.05799,1.06477 -3.11816,1.61328 C 366.69438,378.07696 344.02469,391.38979 335,419 c -0.53368,1.51594 -0.53368,1.51594 -1.07813,3.0625 C 330.4179,434.61812 331.61954,451.19336 337,463 c 0.40089,0.92297 0.80179,1.84594 1.21484,2.79688 6.83487,14.02635 18.99789,24.43203 32.66016,31.45312 0.63574,0.32968 1.27149,0.65936 1.92651,0.99902 15.6342,7.68631 35.03153,8.67703 51.65234,3.64722 4.2592,-1.46331 8.4104,-3.11595 12.54615,-4.89624 0.7773,-0.32597 1.55461,-0.65194 2.35546,-0.98779 C 448.89788,491.95992 457.63937,487.17332 466,481 c 0.53125,-0.38994 1.0625,-0.77988 1.60986,-1.18164 13.67174,-10.12131 25.71746,-22.03759 37.65918,-34.1062 3.43759,-3.46289 6.95842,-6.73497 10.68799,-9.88403 2.73819,-2.45024 5.28408,-5.08102 7.85547,-7.70313 5.40571,-5.47794 11.08476,-10.42448 17.1875,-15.125 1.3071,-1.01514 1.3071,-1.01514 2.64062,-2.05078 C 561.35026,397.61521 581.35497,387.39544 604,389 c 13.38916,2.13142 24.51246,10.84431 33,21 8.82434,12.71276 10.45973,24.85223 9,40 -1.98738,8.37537 -6.7252,15.30974 -12,22 -0.58395,0.74895 -1.1679,1.49789 -1.76954,2.26953 -11.11011,13.35553 -27.20729,22.08038 -41.75,31.1875 C 567.4508,519.9172 545.96266,534.03135 539,562 c -0.17435,0.63438 -0.3487,1.26876 -0.52833,1.92236 -3.06907,13.51853 -0.3399,30.2229 6.34083,42.25342 2.48541,3.81806 5.243,7.35123 8.1875,10.82422 0.50015,0.60844 1.00031,1.21688 1.51562,1.84375 11.81035,13.12261 32.88723,20.60148 50.04688,21.51172 35.50099,1.16867 58.9359,-18.09453 83.95703,-41.09375 2.12917,-1.9414 4.28965,-3.82836 6.48047,-5.69922 3.31702,-2.87521 6.4161,-5.94185 9.5,-9.0625 3.64091,-3.68418 7.34476,-7.21675 11.29687,-10.56641 1.74779,-1.53396 3.42412,-3.09476 5.09375,-4.71093 14.86114,-14.30972 33.2924,-26.77948 54.62891,-26.5625 9.64986,0.94224 17.40321,6.01549 24.48047,12.33984 0.61488,0.53367 1.22976,1.06734 1.86328,1.61719 11.50201,10.6604 18.54285,26.49289 19.32031,42.05859 0.25767,15.32358 -3.66441,27.63771 -14.49609,39 -9.78202,8.45973 -21.65656,13.00832 -34.32813,14.91406 -0.81076,0.12439 -1.62152,0.24878 -2.45685,0.37694 -9.17854,1.32935 -18.39723,1.90692 -27.65121,2.42702 -3.08263,0.17327 -6.16439,0.35814 -9.24619,0.54565 C 727.00397,656.30275 721.0021,656.65291 715,657 c -50.57122,2.54735 -50.57122,2.54735 -98,19 -0.65404,0.3387 -1.30808,0.6774 -1.98194,1.02637 -22.0073,11.68912 -39.51863,29.96489 -47.36572,53.8916 -7.5353,25.63083 -4.18385,50.73245 8.47266,74.08203 15.01374,24.91435 40.84601,38.85779 67.875,47 0.99128,0.30809 1.98257,0.61617 3.0039,0.93359 C 680.88406,862.4516 717.19385,858.57814 751,851 c 1.33321,-0.29826 1.33321,-0.29826 2.69335,-0.60254 9.74687,-2.20391 19.36414,-4.5091 28.81055,-7.7959 3.99408,-0.96258 3.99408,-0.96258 6.4961,0.39844 1.56975,2.2562 2.74656,4.53789 4,7 -28.11411,18.56492 -56.04657,36.71626 -86.67481,50.91748 -2.02415,0.94237 -4.0398,1.89964 -6.05176,2.86768 -6.95703,3.30924 -13.99562,6.03259 -21.28467,8.52002 -2.1241,0.7421 -4.22975,1.52574 -6.33642,2.31591 C 658.38785,919.90236 643.81271,923.59328 629,927 c -0.92346,0.21286 -1.84691,0.42571 -2.79834,0.64502 C 576.96705,938.76676 522.55878,938.91364 473,930 c -1.91136,-0.33693 -1.91136,-0.33693 -3.86133,-0.68066 -69.53132,-12.65714 -137.42874,-46.32882 -189.55664,-93.9834 -2.09241,-1.89298 -4.21068,-3.74031 -6.34766,-5.58203 -4.44915,-3.8854 -8.63269,-8.00461 -12.79687,-12.19141 -0.71608,-0.71221 -1.43215,-1.42441 -2.16993,-2.1582 C 253.63859,810.76689 249.26236,805.97463 245,801 c -0.85723,-0.97582 -1.71446,-1.95164 -2.59766,-2.95703 C 218.81684,770.71968 199.5234,739.53062 184,707 c -0.52328,-1.09224 -0.52328,-1.09224 -1.05713,-2.20654 C 144.5656,623.98924 135.42928,525.51943 159,439 c 0.25861,-0.98323 0.51723,-1.96646 0.78369,-2.97949 C 169.7335,398.47289 191.05108,326.37943 226,304 c 4.58075,-2.21744 9.27793,-4.11117 14,-6 1.25168,-0.51209 2.50298,-1.02511 3.7539,-1.53906 39.83391,-16.26379 84.14611,-25.27541 127.18506,-17.81592 z"
     fill="#538049"
     id="path2" />
  <path
     d="m 535.54053,142.91748 c 28.14126,-0.82176 60.09363,0.35047 87.40112,7.56665 2.24921,0.5637 4.50411,1.01501 6.78101,1.45337 C 688.87833,163.55277 746.03555,191.46616 793,229 c 1.42893,1.13889 1.42893,1.13889 2.88672,2.30078 5.3693,4.33588 10.56957,8.82177 15.66797,13.47266 1.57637,1.43535 3.16418,2.85829 4.76563,4.26562 C 826.84166,258.31035 837.00863,268.22674 846,279 c 0.80309,0.92555 1.60617,1.85109 2.4336,2.80469 17.79519,20.56412 33.22111,43.25752 46.37548,67.04394 1.12099,2.02504 2.26233,4.03739 3.40577,6.04981 45.19164,80.96157 55.99656,181.82178 31.09423,288.5664 -1.66987,5.87724 -3.4501,11.7151 -5.30908,17.53516 -0.25475,0.79841 -0.5095,1.59683 -0.77197,2.41943 C 911.44003,699.81812 893.4586,735.03758 871,766 c -0.48323,0.66725 -0.96647,1.3345 -1.46435,2.02197 -6.07655,8.34265 -12.41135,16.40011 -19.16065,24.2085 -2.38197,2.62128 -2.38197,2.62128 -3.89282,5.29785 -3.69374,3.67812 -7.54343,3.95776 -12.57202,4.78809 -1.50663,0.27317 -1.50663,0.27317 -3.0437,0.55186 -3.26467,0.5857 -6.53368,1.14076 -9.80396,1.69423 -2.23856,0.39338 -4.47693,0.78791 -6.71509,1.18359 C 798.29509,808.55619 782.19968,811.18738 766,813 c -0.7368,0.0844 -1.4736,0.16883 -2.23272,0.2558 -5.82912,0.63235 -11.58557,0.91717 -17.44696,0.94732 -0.89285,0.006 -1.7857,0.0114 -2.7056,0.0173 -1.88068,0.009 -3.76137,0.0159 -5.64206,0.0198 -2.8063,0.01 -5.61184,0.0407 -8.41797,0.0723 -32.15635,0.18749 -68.39567,-6.9337 -92.37549,-29.94214 -8.6708,-8.69154 -13.21167,-19.08161 -13.6792,-31.49536 0.41199,-10.42318 4.94809,-20.00934 12.08985,-27.55469 1.73187,-1.57295 3.51063,-2.95479 5.41015,-4.32031 0.68321,-0.50273 1.36641,-1.00547 2.07032,-1.52344 18.66908,-12.46715 45.28103,-13.54119 66.9414,-13.72265 1.33927,-0.0156 2.67853,-0.0318 4.01778,-0.0486 5.61581,-0.0696 11.2317,-0.12992 16.8477,-0.18212 24.29459,-0.23171 48.40993,-0.70808 72.1228,-6.52319 1.22083,-0.29318 1.22083,-0.29318 2.46631,-0.59229 18.18713,-4.50297 35.84381,-12.37644 49.53369,-25.40771 0.77086,-0.69352 1.54172,-1.38703 2.33594,-2.10156 13.14521,-12.33766 22.51465,-29.70308 27.66406,-46.89844 0.37125,-1.19109 0.7425,-2.38219 1.125,-3.60938 7.81374,-27.17458 1.69476,-55.76437 -11.125,-80.39062 -0.84884,-1.63969 -0.84884,-1.63969 -1.71484,-3.3125 -14.75934,-26.67099 -38.28826,-44.39929 -67.35547,-52.99609 -25.99017,-6.13368 -52.60307,0.54677 -74.92969,14.30859 -16.56755,10.59163 -31.47263,23.9207 -43.75,39.24609 -2.17586,2.66317 -4.43178,5.21433 -6.75,7.75391 -3.05754,3.35326 -5.97087,6.77455 -8.8125,10.3125 -3.93935,4.87073 -8.10164,9.47549 -12.37719,14.04858 -2.75814,2.95025 -5.44886,5.93146 -8.06031,9.01392 -9.8107,11.16875 -21.16736,17.84999 -36.16015,18.89844 -13.30379,0.4588 -24.684,-2.07824 -34.96875,-11.11328 -7.32072,-7.45554 -11.04699,-16.18091 -11.4961,-26.66016 0.66838,-16.27348 10.00509,-27.73182 21.39746,-38.39258 5.33895,-4.83571 10.92986,-9.21389 16.72754,-13.48242 1.76474,-1.31195 3.52906,-2.62445 5.29297,-3.9375 0.84869,-0.63035 1.69737,-1.2607 2.57178,-1.91016 5.18008,-3.85987 10.29795,-7.79597 15.38525,-11.77734 0.92813,-0.72188 1.85625,-1.44375 2.8125,-2.1875 14.93688,-11.88161 27.82216,-24.96994 33.1875,-43.8125 0.17362,-0.60062 0.34724,-1.20125 0.52613,-1.82007 3.20141,-14.72715 1.06554,-31.24704 -6.21363,-44.30493 -10.03344,-15.43799 -24.60548,-28.98405 -43.10937,-33.04297 -14.37188,-2.59865 -28.38929,-1.18592 -42.20313,3.16797 -1.7383,0.47373 -1.7383,0.47373 -3.51172,0.95703 -27.37287,8.04022 -51.11285,26.66426 -74.12255,42.91431 -9.93688,6.98987 -20.12026,13.60192 -30.36573,20.12866 -0.7259,0.4631 -1.4518,0.92619 -2.1997,1.40332 -7.09979,4.49416 -14.3364,8.48388 -21.9253,12.09668 -0.7114,0.33894 -1.4228,0.67789 -2.15576,1.0271 -8.75912,4.04404 -19.5673,5.4002 -28.96924,2.5354 -6.2157,-2.83264 -12.82838,-8.38264 -15.875,-14.5625 -1.78117,-7.12467 -1.60418,-12.04792 2.125,-18.5 9.42693,-11.31232 24.51546,-18.04195 37.21509,-24.9436 22.01961,-11.98739 36.28522,-26.63433 43.78491,-51.0564 0.48147,-1.48693 0.48147,-1.48693 0.97266,-3.00391 5.39394,-19.24258 2.85082,-41.23855 -5.97266,-58.99609 -11.04739,-19.46668 -27.53014,-34.20176 -49.20361,-40.31836 -25.1154,-6.12207 -53.3704,-7.1242 -78.79639,-2.68164 -1.33038,0.19893 -2.66113,0.39545 -3.99218,0.58984 -19.85523,3.03134 -38.2372,9.75083 -56.70557,17.47388 -1.74296,0.70883 -3.51723,1.34127 -5.30225,1.93628 -1.65,-1.65 -3.3,-3.3 -5,-5 1.61477,-4.45933 5.05119,-6.96374 8.5625,-9.9375 0.66403,-0.56775 1.32806,-1.1355 2.01221,-1.72046 16.62519,-14.0715 34.35079,-27.23425 53.25195,-38.08911 2.44589,-1.41006 4.87708,-2.84415 7.31006,-4.27637 57.77829,-33.68166 122.7684,-50.8947 189.40381,-53.0591 z"
     fill="#878171"
     id="path3" />
  <path
     d="m 535.54053,142.91748 c 28.14126,-0.82176 60.09363,0.35047 87.40112,7.56665 2.24921,0.5637 4.50411,1.01501 6.78101,1.45337 C 688.87833,163.55277 746.03555,191.46616 793,229 c 1.42893,1.13889 1.42893,1.13889 2.88672,2.30078 5.3693,4.33588 10.56957,8.82177 15.66797,13.47266 1.57637,1.43535 3.16418,2.85829 4.76563,4.26562 C 826.84166,258.31035 837.00863,268.22674 846,279 c 0.80309,0.92555 1.60617,1.85109 2.4336,2.80469 17.79519,20.56412 33.22111,43.25752 46.37548,67.04394 1.12099,2.02504 2.26233,4.03739 3.40577,6.04981 45.19164,80.96157 55.99656,181.82178 31.09423,288.5664 -1.66987,5.87724 -3.4501,11.7151 -5.30908,17.53516 -0.25475,0.79841 -0.5095,1.59683 -0.77197,2.41943 C 911.44003,699.81812 893.4586,735.03758 871,766 c -0.48323,0.66725 -0.96647,1.3345 -1.46435,2.02197 -6.07655,8.34265 -12.41135,16.40011 -19.16065,24.2085 -2.38197,2.62128 -2.38197,2.62128 -3.89282,5.29785 -3.69374,3.67812 -7.54343,3.95776 -12.57202,4.78809 -1.50663,0.27317 -1.50663,0.27317 -3.0437,0.55186 -3.26467,0.5857 -6.53368,1.14076 -9.80396,1.69423 -2.23856,0.39338 -4.47693,0.78791 -6.71509,1.18359 C 798.29509,808.55619 782.19968,811.18738 766,813 c -0.7368,0.0844 -1.4736,0.16883 -2.23272,0.2558 -5.82912,0.63235 -11.58557,0.91717 -17.44696,0.94732 -0.89285,0.006 -1.7857,0.0114 -2.7056,0.0173 -1.88068,0.009 -3.76137,0.0159 -5.64206,0.0198 -2.8063,0.01 -5.61184,0.0407 -8.41797,0.0723 -32.15635,0.18749 -68.39567,-6.9337 -92.37549,-29.94214 -8.6708,-8.69154 -13.21167,-19.08161 -13.6792,-31.49536 0.41199,-10.42318 4.94809,-20.00934 12.08985,-27.55469 1.73187,-1.57295 3.51063,-2.95479 5.41015,-4.32031 0.68321,-0.50273 1.36641,-1.00547 2.07032,-1.52344 18.66908,-12.46715 45.28103,-13.54119 66.9414,-13.72265 1.33927,-0.0156 2.67853,-0.0318 4.01778,-0.0486 5.61581,-0.0696 11.2317,-0.12992 16.8477,-0.18212 24.29459,-0.23171 48.40993,-0.70808 72.1228,-6.52319 1.22083,-0.29318 1.22083,-0.29318 2.46631,-0.59229 18.18713,-4.50297 35.84381,-12.37644 49.53369,-25.40771 0.77086,-0.69352 1.54172,-1.38703 2.33594,-2.10156 13.14521,-12.33766 22.51465,-29.70308 27.66406,-46.89844 0.37125,-1.19109 0.7425,-2.38219 1.125,-3.60938 7.81374,-27.17458 1.69476,-55.76437 -11.125,-80.39062 -0.84884,-1.63969 -0.84884,-1.63969 -1.71484,-3.3125 -14.75934,-26.67099 -38.28826,-44.39929 -67.35547,-52.99609 -25.99017,-6.13368 -52.60307,0.54677 -74.92969,14.30859 -16.56755,10.59163 -31.47263,23.9207 -43.75,39.24609 -2.17586,2.66317 -4.43178,5.21433 -6.75,7.75391 -3.05754,3.35326 -5.97087,6.77455 -8.8125,10.3125 -3.93935,4.87073 -8.10164,9.47549 -12.37719,14.04858 -2.75814,2.95025 -5.44886,5.93146 -8.06031,9.01392 -9.8107,11.16875 -21.16736,17.84999 -36.16015,18.89844 -13.30379,0.4588 -24.684,-2.07824 -34.96875,-11.11328 -7.32072,-7.45554 -11.04699,-16.18091 -11.4961,-26.66016 0.66838,-16.27348 10.00509,-27.73182 21.39746,-38.39258 5.33895,-4.83571 10.92986,-9.21389 16.72754,-13.48242 1.76474,-1.31195 3.52906,-2.62445 5.29297,-3.9375 0.84869,-0.63035 1.69737,-1.2607 2.57178,-1.91016 5.18008,-3.85987 10.29795,-7.79597 15.38525,-11.77734 0.92813,-0.72188 1.85625,-1.44375 2.8125,-2.1875 14.93688,-11.88161 27.82216,-24.96994 33.1875,-43.8125 0.17362,-0.60062 0.34724,-1.20125 0.52613,-1.82007 3.20141,-14.72715 1.06554,-31.24704 -6.21363,-44.30493 -10.03344,-15.43799 -24.60548,-28.98405 -43.10937,-33.04297 -14.37188,-2.59865 -28.38929,-1.18592 -42.20313,3.16797 -1.7383,0.47373 -1.7383,0.47373 -3.51172,0.95703 -27.37287,8.04022 -51.11285,26.66426 -74.12255,42.91431 -9.93688,6.98987 -20.12026,13.60192 -30.36573,20.12866 -0.7259,0.4631 -1.4518,0.92619 -2.1997,1.40332 -7.09979,4.49416 -14.3364,8.48388 -21.9253,12.09668 -0.7114,0.33894 -1.4228,0.67789 -2.15576,1.0271 -8.75912,4.04404 -19.5673,5.4002 -28.96924,2.5354 -6.2157,-2.83264 -12.82838,-8.38264 -15.875,-14.5625 -1.78117,-7.12467 -1.60418,-12.04792 2.125,-18.5 9.42693,-11.31232 24.51546,-18.04195 37.21509,-24.9436 22.01961,-11.98739 36.28522,-26.63433 43.78491,-51.0564 0.48147,-1.48693 0.48147,-1.48693 0.97266,-3.00391 5.39394,-19.24258 2.85082,-41.23855 -5.97266,-58.99609 -11.04739,-19.46668 -27.53014,-34.20176 -49.20361,-40.31836 -25.1154,-6.12207 -53.3704,-7.1242 -78.79639,-2.68164 -1.33038,0.19893 -2.66113,0.39545 -3.99218,0.58984 -19.85523,3.03134 -38.2372,9.75083 -56.70557,17.47388 -1.74296,0.70883 -3.51723,1.34127 -5.30225,1.93628 -1.65,-1.65 -3.3,-3.3 -5,-5 1.61477,-4.45933 5.05119,-6.96374 8.5625,-9.9375 0.66403,-0.56775 1.32806,-1.1355 2.01221,-1.72046 16.62519,-14.0715 34.35079,-27.23425 53.25195,-38.08911 2.44589,-1.41006 4.87708,-2.84415 7.31006,-4.27637 57.77829,-33.68166 122.7684,-50.8947 189.40381,-53.0591 z M 490,155 c -0.80357,0.12278 -1.60714,0.24557 -2.43506,0.37207 -4.19091,0.64722 -8.35247,1.39015 -12.51025,2.22314 -2.21227,0.43583 -4.42933,0.83733 -6.64844,1.23682 -33.5736,6.18915 -67.12112,17.22074 -97.37402,33.10693 -2.18143,1.13894 -4.37545,2.25096 -6.57129,3.36182 C 342.27015,206.62485 321.53963,220.57573 302,236 c 2.06449,1.31877 2.06449,1.31877 4.70313,0.17969 1.17047,-0.43055 2.34094,-0.8611 3.54687,-1.30469 6.45604,-2.25985 12.96131,-4.02446 19.625,-5.5625 0.84724,-0.2019 1.69448,-0.4038 2.56739,-0.61182 14.61668,-3.2867 29.25444,-4.08202 44.18261,-4.01318 0.82617,0.002 1.65234,0.004 2.50354,0.006 32.50601,0.12025 61.99451,4.78008 86.55896,27.55698 18.64809,19.75865 25.24693,42.10383 24.625,68.82422 -0.88894,23.65528 -9.91253,45.50572 -27.3125,61.92578 -8.50555,7.07844 -17.92209,12.26135 -27.65698,17.45508 -6.09184,3.26523 -12.02822,6.68234 -17.84302,10.41992 -0.67522,0.42789 -1.35045,0.85578 -2.04614,1.29663 -7.59617,4.8416 -7.59617,4.8416 -12.14526,12.20728 0.0638,1.08087 0.0638,1.08087 0.1289,2.18359 0.029,1.08475 0.029,1.08475 0.0586,2.19141 0.86961,3.87619 2.59954,6.46827 5.59765,9.04687 6.43718,4.04414 11.35708,5.47739 18.90625,4.19922 28.61748,-6.83403 55.7228,-30.67075 79.36646,-47.35767 16.7696,-11.81066 34.02153,-23.1395 53.30151,-30.38842 2.31961,-0.87292 4.61339,-1.81636 6.88281,-2.8125 3.1514,-1.31695 6.13581,-2.26449 9.44922,-3.06641 0.96938,-0.23977 1.93875,-0.47953 2.9375,-0.72656 20.6231,-4.36663 41.76306,-3.22907 60.0625,7.66406 5.41505,3.77312 10.29845,8.06444 15,12.6875 0.69996,0.68707 1.39992,1.37414 2.1211,2.08203 9.16962,9.63437 14.75193,21.07442 17.8789,33.91797 0.28617,1.16402 0.28617,1.16402 0.57813,2.35156 3.15236,19.78985 -2.13627,38.50085 -13.70313,54.64844 -8.31236,10.64371 -18.01856,19.29024 -28.75683,27.3999 -2.41319,1.82297 -4.81667,3.65833 -7.21973,5.49463 -15.03267,11.47565 -15.03267,11.47565 -19.71094,14.92969 -11.71023,8.69693 -24.0837,18.62755 -28.1875,33.17578 -0.9794,9.27853 -0.70106,17.35223 5,25 6.6485,7.79168 16.22445,11.31002 26.28906,12.20312 12.21416,0.2451 22.80988,-3.6023 31.75782,-11.98046 5.62347,-5.46068 10.89739,-11.23534 15.95312,-17.22266 0.88848,-1.03719 1.77789,-2.07357 2.66797,-3.10938 4.16138,-4.84385 8.31358,-9.69549 12.45703,-14.55468 5.21276,-6.10718 10.46151,-12.16697 15.86719,-18.10547 1.85854,-2.06465 3.6528,-4.17114 5.44531,-6.29297 18.21369,-20.74452 49.40319,-41.76912 77.5625,-43.9375 4.68797,-0.23377 9.36915,-0.33091 14.0625,-0.375 1.17176,-0.0142 2.34352,-0.0284 3.55078,-0.043 28.8354,0.16163 54.96677,15.02781 74.97266,34.94678 23.79147,24.75266 33.98715,59.11906 33.63281,92.68994 -0.19689,7.5213 -1.3675,14.48847 -3.21875,21.78125 -0.40025,1.63582 -0.40025,1.63582 -0.80859,3.30469 -7.25426,26.37325 -25.41157,51.3822 -49.02246,65.28735 -30.74827,17.41986 -63.9391,21.21367 -98.75879,21.6189 -1.23674,0.0144 -2.47348,0.0288 -3.7477,0.0437 -5.14925,0.0569 -10.29841,0.11144 -15.44786,0.14673 -46.26116,-0.47556 -46.26116,-0.47556 -86.37085,19.51269 -6.43818,7.28388 -7.48617,15.67657 -7.24219,25.125 1.06335,10.57087 7.39863,18.40642 15.39844,24.96094 11.98618,8.94743 25.60528,14.37592 40,18 0.97196,0.27586 1.94391,0.55172 2.94532,0.83594 14.03257,3.86182 28.51377,4.55563 42.99218,4.47656 0.76061,-0.003 1.52122,-0.006 2.30487,-0.009 14.10064,-0.0777 27.8145,-1.13309 41.75763,-3.30395 1.33971,-0.20714 1.33971,-0.20714 2.70648,-0.41846 7.53944,-1.16856 15.07401,-2.36613 22.60602,-3.58154 1.61035,-0.25983 1.61035,-0.25983 3.25324,-0.5249 6.82077,-1.10751 13.63098,-2.2649 20.43426,-3.4751 0.72599,-0.12497 1.45197,-0.24994 2.19995,-0.37869 6.99164,-1.2294 11.75757,-2.09909 16.17505,-8.05881 0.42733,-0.55784 0.85465,-1.11568 1.29492,-1.69043 0.94749,-1.24616 1.87948,-2.50421 2.79786,-3.77197 1.68022,-2.30295 3.41762,-4.55479 5.16504,-6.80713 C 862.6568,763.87955 870.1265,753.20381 877,741.9995 c 0.41556,-0.67563 0.83113,-1.35126 1.25928,-2.04736 C 900.6867,703.23761 916.3369,663.88697 926,621.9995 c 0.16597,-0.71366 0.33194,-1.42731 0.50293,-2.1626 2.95447,-12.84612 5.02216,-25.74062 6.49707,-38.8374 0.1588,-1.40983 0.1588,-1.40983 0.3208,-2.84815 4.27307,-39.86611 1.70958,-79.93868 -6.3208,-119.15185 -0.17676,-0.88091 -0.35352,-1.76183 -0.53564,-2.66943 -6.22564,-30.75088 -16.95108,-61.44834 -31.39795,-89.27588 -1.0723,-2.06605 -2.13182,-4.13835 -3.19141,-6.21094 -14.62039,-28.34861 -33.01496,-54.71716 -54.53906,-78.26172 -1.29292,-1.42913 -2.57903,-2.86487 -3.8352,-4.32642 -4.74458,-5.51757 -9.78161,-10.68606 -14.93824,-15.81811 -1.21139,-1.2172 -1.21139,-1.2172 -2.44726,-2.45898 -4.87535,-4.86749 -9.86127,-9.52328 -15.11524,-13.97852 -0.64106,-0.54777 -1.28213,-1.09554 -1.94262,-1.65991 -9.65374,-8.19853 -19.57977,-15.83388 -30.04468,-22.96705 -1.89984,-1.29605 -3.78881,-2.60665 -5.67676,-3.91992 -9.63323,-6.63121 -19.71336,-12.42834 -29.9292,-18.11035 -2.04148,-1.13899 -4.07136,-2.29514 -6.09814,-3.45996 -54.75145,-30.5791 -119.6299,-44.38332 -181.8711,-44.19481 -1.18661,0.001 -2.37322,0.002 -3.59579,0.004 C 524.37407,151.72472 507.27383,152.21149 490,155 Z"
     fill="#6b5e44"
     id="path4" />
  <path
     d="m 370.93896,278.64502 c 2.38674,0.41108 4.77995,0.76834 7.17432,1.13232 16.71767,2.69669 32.40554,7.07073 43.27343,21 5.54746,8.76458 6.77805,19.10238 5.61329,29.22266 -2.66718,10.22419 -7.34942,18.79833 -16,25 -3.50849,1.98169 -7.09508,3.80101 -10.6875,5.625 -2.07634,1.07133 -4.15186,2.14427 -6.22657,3.21875 -1.02899,0.53238 -2.05799,1.06477 -3.11816,1.61328 C 366.69438,378.07696 344.02469,391.38979 335,419 c -0.53368,1.51594 -0.53368,1.51594 -1.07813,3.0625 C 330.4179,434.61812 331.61954,451.19336 337,463 c 0.40089,0.92297 0.80179,1.84594 1.21484,2.79688 6.83487,14.02635 18.99789,24.43203 32.66016,31.45312 0.63574,0.32968 1.27149,0.65936 1.92651,0.99902 15.6342,7.68631 35.03153,8.67703 51.65234,3.64722 4.2592,-1.46331 8.4104,-3.11595 12.54615,-4.89624 0.7773,-0.32597 1.55461,-0.65194 2.35546,-0.98779 C 448.89788,491.95992 457.63937,487.17332 466,481 c 0.53125,-0.38994 1.0625,-0.77988 1.60986,-1.18164 13.67174,-10.12131 25.71746,-22.03759 37.65918,-34.1062 3.43759,-3.46289 6.95842,-6.73497 10.68799,-9.88403 2.73819,-2.45024 5.28408,-5.08102 7.85547,-7.70313 5.40571,-5.47794 11.08476,-10.42448 17.1875,-15.125 1.3071,-1.01514 1.3071,-1.01514 2.64062,-2.05078 C 561.35026,397.61521 581.35497,387.39544 604,389 c 13.38916,2.13142 24.51246,10.84431 33,21 8.82434,12.71276 10.45973,24.85223 9,40 -1.98738,8.37537 -6.7252,15.30974 -12,22 -0.58395,0.74895 -1.1679,1.49789 -1.76954,2.26953 -11.11011,13.35553 -27.20729,22.08038 -41.75,31.1875 C 567.4508,519.9172 545.96266,534.03135 539,562 c -0.17435,0.63438 -0.3487,1.26876 -0.52833,1.92236 -3.06907,13.51853 -0.3399,30.2229 6.34083,42.25342 2.48541,3.81806 5.243,7.35123 8.1875,10.82422 0.50015,0.60844 1.00031,1.21688 1.51562,1.84375 11.81035,13.12261 32.88723,20.60148 50.04688,21.51172 35.50099,1.16867 58.9359,-18.09453 83.95703,-41.09375 2.12917,-1.9414 4.28965,-3.82836 6.48047,-5.69922 3.31702,-2.87521 6.4161,-5.94185 9.5,-9.0625 3.64091,-3.68418 7.34476,-7.21675 11.29687,-10.56641 1.74779,-1.53396 3.42412,-3.09476 5.09375,-4.71093 14.86114,-14.30972 33.2924,-26.77948 54.62891,-26.5625 9.64986,0.94224 17.40321,6.01549 24.48047,12.33984 0.61488,0.53367 1.22976,1.06734 1.86328,1.61719 11.50201,10.6604 18.54285,26.49289 19.32031,42.05859 0.25767,15.32358 -3.66441,27.63771 -14.49609,39 -9.78202,8.45973 -21.65656,13.00832 -34.32813,14.91406 -0.81076,0.12439 -1.62152,0.24878 -2.45685,0.37694 -9.17854,1.32935 -18.39723,1.90692 -27.65121,2.42702 -3.08263,0.17327 -6.16439,0.35814 -9.24619,0.54565 C 727.00397,656.30275 721.0021,656.65291 715,657 c -50.57122,2.54735 -50.57122,2.54735 -98,19 -0.65404,0.3387 -1.30808,0.6774 -1.98194,1.02637 -22.0073,11.68912 -39.51863,29.96489 -47.36572,53.8916 -7.5353,25.63083 -4.18385,50.73245 8.47266,74.08203 15.01374,24.91435 40.84601,38.85779 67.875,47 0.99128,0.30809 1.98257,0.61617 3.0039,0.93359 C 680.88406,862.4516 717.19385,858.57814 751,851 c 1.33321,-0.29826 1.33321,-0.29826 2.69335,-0.60254 9.74687,-2.20391 19.36414,-4.5091 28.81055,-7.7959 3.99408,-0.96258 3.99408,-0.96258 6.4961,0.39844 1.56975,2.2562 2.74656,4.53789 4,7 -28.11411,18.56492 -56.04657,36.71626 -86.67481,50.91748 -2.02415,0.94237 -4.0398,1.89964 -6.05176,2.86768 -6.95703,3.30924 -13.99562,6.03259 -21.28467,8.52002 -2.1241,0.7421 -4.22975,1.52574 -6.33642,2.31591 C 658.38785,919.90236 643.81271,923.59328 629,927 c -0.92346,0.21286 -1.84691,0.42571 -2.79834,0.64502 C 576.96705,938.76676 522.55878,938.91364 473,930 c -1.91136,-0.33693 -1.91136,-0.33693 -3.86133,-0.68066 -69.53132,-12.65714 -137.42874,-46.32882 -189.55664,-93.9834 -2.09241,-1.89298 -4.21068,-3.74031 -6.34766,-5.58203 -4.44915,-3.8854 -8.63269,-8.00461 -12.79687,-12.19141 -0.71608,-0.71221 -1.43215,-1.42441 -2.16993,-2.1582 C 253.63859,810.76689 249.26236,805.97463 245,801 c -0.85723,-0.97582 -1.71446,-1.95164 -2.59766,-2.95703 C 218.81684,770.71968 199.5234,739.53062 184,707 c -0.52328,-1.09224 -0.52328,-1.09224 -1.05713,-2.20654 C 144.5656,623.98924 135.42928,525.51943 159,439 c 0.25861,-0.98323 0.51723,-1.96646 0.78369,-2.97949 C 169.7335,398.47289 191.05108,326.37943 226,304 c 4.58075,-2.21744 9.27793,-4.11117 14,-6 1.25168,-0.51209 2.50298,-1.02511 3.7539,-1.53906 39.83391,-16.26379 84.14611,-25.27541 127.18506,-17.81592 z M 257,300 c -1.69238,0.61585 -1.69238,0.61585 -3.41895,1.24414 -3.64498,1.34315 -7.27043,2.72992 -10.89355,4.13086 -1.13913,0.42168 -2.27826,0.84337 -3.45191,1.27783 -11.74092,4.67334 -17.28025,12.73872 -23.61059,23.28467 -0.55454,0.91096 -1.10908,1.82193 -1.68042,2.7605 C 208.7235,341.33524 203.74213,350.09136 199,359 c -0.33274,0.6202 -0.66548,1.2404 -1.00831,1.87939 -14.8023,27.81334 -25.51908,57.34061 -32.3125,88.06202 -0.65312,2.94116 -1.33435,5.87464 -2.01904,8.80859 -1.38025,6.05581 -2.5704,12.13553 -3.66015,18.25 -0.2985,1.6728 -0.2985,1.6728 -0.60303,3.37939 C 143.9104,571.09388 165.77332,670.21958 216,748 c 0.66,1.03254 1.32,2.06508 2,3.12891 8.687,13.30197 18.01582,26.13161 28.48388,38.08398 1.16142,1.36901 2.2931,2.7633 3.41113,4.16797 5.5654,6.98097 11.53242,13.35706 17.86084,19.63574 1.61761,1.60687 3.22421,3.22419 4.83008,4.84278 6.48516,6.49339 13.22844,12.4186 20.41407,18.14062 1.1137,0.94633 2.22174,1.89943 3.32031,2.86328 C 304.76833,846.24059 313.71361,852.72 323,859 c 0.68578,0.46406 1.37156,0.92813 2.07812,1.40625 47.337,31.7989 100.09766,52.71797 156.23438,62.34375 1.73153,0.29838 1.73153,0.29838 3.49804,0.60278 18.06806,2.94605 36.00477,3.97923 54.29981,3.90796 3.25507,-0.0107 6.50959,-3e-5 9.76465,0.0127 19.64095,0.0154 38.95145,-1.40355 58.30712,-4.76807 2.21488,-0.38419 4.43201,-0.75232 6.64991,-1.11865 51.44597,-8.63993 99.10757,-29.4751 142.85547,-57.51172 0.70125,-0.44932 1.4025,-0.89864 2.125,-1.36157 3.01738,-1.96788 5.70296,-3.9097 8.1875,-6.51343 -0.96036,0.24234 -1.92071,0.48469 -2.91016,0.73438 C 714.3826,869.00365 659.94288,872.70428 613,849 c -0.63374,-0.31695 -1.26748,-0.6339 -1.92042,-0.96045 C 601.63449,843.22847 593.77482,837.115 586,830 c -0.81211,-0.71801 -1.62422,-1.43602 -2.46094,-2.17578 C 569.56525,814.80652 560.6964,796.56732 557,778 c -0.17129,-0.76707 -0.34257,-1.53415 -0.51905,-2.32446 -4.5244,-25.169 1.9414,-52.43523 16.32373,-73.29273 19.49055,-25.31345 46.53714,-40.0375 77.32032,-47.19531 0.83281,-0.19489 1.66563,-0.38978 2.52368,-0.59058 12.9269,-2.81192 26.19185,-3.80779 39.38068,-4.4269 2.19849,-0.10402 4.39641,-0.21672 6.59437,-0.33143 6.23691,-0.32444 12.47431,-0.63779 18.71245,-0.93771 16.09393,-0.77889 32.12738,-1.7101 48.12085,-3.72119 1.18188,-0.1405 2.36376,-0.281 3.58146,-0.42575 14.70325,-2.00886 27.19206,-7.24615 36.68026,-18.92191 5.19325,-7.42572 6.48199,-13.99841 6.53125,-22.89453 0.0309,-1.35642 0.0309,-1.35642 0.0625,-2.74023 0.0832,-14.54888 -6.14045,-26.51877 -16.01172,-36.97071 -6.77613,-6.55754 -13.62637,-11.64325 -23.36328,-11.72656 -28.37558,0.63859 -51.21294,27.58615 -69.78125,46.37109 -2.60989,2.5768 -5.32989,4.98521 -8.11719,7.36719 -2.26599,1.95778 -4.4605,3.98401 -6.66406,6.01172 -6.20147,5.58417 -12.71448,10.72825 -19.375,15.75 -0.81042,0.61174 -0.81042,0.61174 -1.63721,1.23584 C 653.91968,638.25917 640.38497,644.59608 624,648 c -0.96293,0.28617 -0.96293,0.28617 -1.94532,0.57813 -20.87134,4.28537 -44.692,-3.90823 -62.27734,-14.67188 C 547.8811,625.74118 539.28101,615.3933 534,602 c -0.30809,-0.74637 -0.61618,-1.49273 -0.9336,-2.26172 -5.40257,-13.57106 -5.77186,-34.1347 -0.4414,-47.8125 0.68062,-1.44826 0.68062,-1.44826 1.375,-2.92578 0.53625,-1.20269 1.0725,-2.40539 1.625,-3.64453 10.11692,-21.39062 29.59119,-33.86097 49.0332,-46.01758 C 617.88311,479.70242 617.88311,479.70242 638,448 c 2.26919,-11.94518 -0.91333,-22.72056 -7.5625,-32.6875 -6.85767,-8.92262 -16.18733,-14.77398 -26.875,-18.0625 -22.63523,-2.20831 -43.05446,10.80997 -60.00391,24.51563 -5.71325,4.70044 -11.15269,9.61334 -16.26563,14.96875 -1.90351,1.88081 -3.83617,3.60657 -5.86718,5.34375 C 516.01182,446.77412 511.02806,451.90015 506,457 c -6.14409,6.2318 -12.31425,12.34311 -19,18 -0.95004,0.83145 -1.90008,1.66289 -2.87891,2.51953 C 459.32081,498.70988 428.21345,514.5579 395,513 c -3.45148,-0.37047 -6.66111,-1.06361 -10,-2 -0.99,-0.25652 -1.98,-0.51305 -3,-0.77734 C 369.16395,506.62795 357.91223,500.9401 348,492 c -0.6845,-0.59168 -1.36899,-1.18336 -2.07422,-1.79297 C 335.79136,480.86903 329.84635,469.04206 326,456 c -0.24493,-0.74121 -0.48985,-1.48242 -0.74219,-2.24609 -5.07946,-17.84769 -0.0631,-37.25591 8.54297,-53.0586 13.98597,-24.25896 41.28966,-36.79447 65.3789,-48.79687 8.0511,-4.07203 14.19512,-8.34147 17.75782,-16.89844 2.27436,-8.25352 2.65327,-18.60106 -0.875,-26.5 -5.79022,-9.6612 -14.18339,-14.30816 -24.76734,-17.25244 -2.79827,-0.67558 -5.60113,-1.28976 -8.42016,-1.87256 -1.52573,-0.31747 -1.52573,-0.31747 -3.08228,-0.64136 C 376.86502,288.13763 373.93413,287.56338 371,287 c -1.29551,-0.25137 -2.59102,-0.50273 -3.92579,-0.76172 C 330.22696,280.45912 291.62319,287.23263 257,300 Z"
     fill="#356829"
     id="path5" />
  <path
     d="m 976,645 c 3.65572,0.68334 7.1954,1.57558 10.76953,2.60156 1.68597,0.48268 1.68597,0.48268 3.40601,0.9751 1.20019,0.34595 2.40039,0.6919 3.63696,1.04834 1.86894,0.53633 1.86894,0.53633 3.77563,1.0835 8.92987,2.5663 17.85127,5.16126 26.76857,7.77075 9.8681,2.88581 19.754,5.70848 29.6433,8.52075 -0.875,6.75 -0.875,6.75 -2,9 -6.9166,-1.0989 -13.4274,-2.56569 -20,-5 0.495,0.99 0.495,0.99 1,2 0.8321,6.57489 -0.3513,11.49585 -4,17 -3.1399,3.71077 -5.26,4.84945 -10.1602,5.27344 C 1003.0517,695.68434 987.33706,691.71896 974,683 c -4.52468,-4.9474 -6.52286,-8.88393 -6.39063,-15.55078 0.9078,-5.69186 4.23094,-10.57009 8.39063,-14.44922 -0.33,-0.33 -0.66,-0.66 -1,-1 0.2873,-2.33945 0.61937,-4.67391 1,-7 z"
     fill="#060606"
     id="path6" />
  <path
     d="m 265,101 c 3.83466,3.59753 6.78233,7.38318 9.625,11.8125 0.88044,1.34575 1.76199,2.69078 2.64453,4.03516 0.45069,0.68852 0.90138,1.37704 1.36572,2.08642 2.18161,3.30247 4.42747,6.55967 6.67725,9.81592 0.91807,1.33066 1.83604,2.66139 2.75391,3.99219 0.47195,0.68417 0.94391,1.36834 1.43017,2.07324 1.61908,2.35263 3.23195,4.70943 4.84326,7.06738 0.56405,0.82524 1.12809,1.65049 1.70923,2.50073 1.12305,1.645 2.24466,3.29098 3.36475,4.93799 2.28763,3.35702 4.57668,6.70289 7.00024,9.96363 0.64711,0.87527 1.29422,1.75054 1.96094,2.65234 0.54398,0.71027 1.08797,1.42055 1.64844,2.15234 C 311,166 311,166 310.78125,168.17969 310,170 310,170 308.125,171.1875 c -1.69252,0.64714 -3.40597,1.23949 -5.125,1.8125 -0.55688,0.9075 -1.11375,1.815 -1.6875,2.75 -3.24031,4.55395 -7.38313,6.78532 -12.3125,9.25 -6.49856,0.77983 -10.03832,-1.14311 -15,-5 -10.09862,-8.29126 -21.17559,-24.0282 -23.57031,-37.11719 -0.17655,-4.34315 0.29834,-7.27088 2.07031,-11.25781 4.07335,-4.27702 8.00625,-7.40234 14,-7.9375 0.825,0.10313 1.65,0.20625 2.5,0.3125 -3.3362,-6.2443 -6.98771,-12.1677 -11,-18 2.31,-1.65 4.62,-3.3 7,-5 z"
     fill="#060606"
     id="path7" />
  <path
     d="m 366,75 c 12.14172,6.061085 16.9425,23.041852 21,35 1.68011,6.0609 2.36959,13.28804 0.16406,19.26562 -3.57552,5.51926 -9.13018,7.72309 -15.16406,9.73438 -4.75001,0.49871 -8.76617,0.53224 -13.1875,-1.375 -11.33569,-10.57997 -19.64248,-29.38317 -20.25,-44.875 0.16199,-5.060722 0.79219,-8.013554 4.4375,-11.75 7.55839,-5.467135 13.54258,-7.308295 23,-6 z"
     fill="#060606"
     id="path8" />
  <path
     d="m 995.3125,319 c 2.47443,1.46633 2.86516,3.32739 3.6875,6 -0.66,0.66 -1.32,1.32 -2,2 0.47051,0.36352 0.94102,0.72703 1.42578,1.10156 4.02422,3.24935 7.00622,5.82547 8.57422,10.89844 -0.078,2.14696 -0.1849,4.29293 -0.3125,6.4375 -0.2078,4.73785 -0.2078,4.73785 1.9766,8.75 1.4215,1.15794 2.874,2.27909 4.3554,3.35937 2.955,2.16816 3.9224,3.94823 4.9805,7.45313 0.7429,4.95476 1.0321,9.5877 -0.9727,14.27344 -5.409,7.29865 -14.9147,10.35405 -23.0273,13.72656 -1.11407,0.46438 -2.22814,0.92877 -3.37598,1.40723 C 969.55938,403.14688 969.55938,403.14688 964,405 c -1.485,-4.455 -1.485,-4.455 -3,-9 3.8522,-1.7128 7.70676,-3.4202 11.5625,-5.125 1.13993,-0.5041 2.27987,-1.00821 3.45435,-1.52759 7.268,-3.19788 14.5602,-6.24409 21.99487,-9.031 5.94348,-2.56611 5.94348,-2.56611 9.98828,-7.31641 0.4721,-4.72103 0.7336,-7.65955 -2.3125,-11.4375 -2.4818,-2.73049 -2.4818,-2.73049 -5.6875,-3.5625 -2.44228,0.95641 -2.44228,0.95641 -5.12109,2.47266 -7.09583,3.69487 -14.35885,6.88554 -21.71851,10.01635 -2.25498,0.96218 -4.50346,1.93862 -6.7522,2.91529 -1.43908,0.61481 -2.87852,1.22877 -4.31836,1.84179 -0.6687,0.29258 -1.33741,0.58515 -2.02638,0.88658 -4.72048,1.98166 -4.72048,1.98166 -8.06346,0.86733 -1.44779,-2.89558 -2,-4.74189 -2,-8 4.05224,-1.76099 8.105,-3.52077 12.1582,-5.27954 1.37319,-0.59604 2.74624,-1.19239 4.11914,-1.78906 1.99573,-0.8673 3.99191,-1.73356 5.98828,-2.59937 0.98224,-0.42651 0.98224,-0.42651 1.98432,-0.86163 5.09034,-2.20318 10.21408,-4.31721 15.36139,-6.38422 3.49766,-1.59046 5.24595,-2.8721 7.38867,-6.08618 0.71484,-4.36847 0.29032,-6.4401 -1.75,-10.375 -2.34471,-2.7355 -2.83261,-3.2518 -6.25,-3.625 -2.23991,0.56641 -2.23991,0.56641 -4.53735,1.63061 -1.33643,0.57071 -1.33643,0.57071 -2.69985,1.15294 -0.95426,0.42077 -1.90852,0.84153 -2.89171,1.27504 -1.47907,0.63471 -1.47907,0.63471 -2.98802,1.28225 -3.15327,1.35483 -6.29968,2.72476 -9.44557,4.09666 -3.15029,1.36624 -6.30191,2.72917 -9.45628,4.08595 -1.96358,0.84535 -3.92466,1.69655 -5.88297,2.55405 -0.88779,0.38362 -1.77559,0.76724 -2.69029,1.16249 -1.17104,0.51082 -1.17104,0.51082 -2.36574,1.03197 C 944,351 944,351 941,351 c -0.99,-2.64 -1.98,-5.28 -3,-8 8.55192,-4.57275 17.48168,-8.21598 26.42725,-11.92969 4.28001,-1.78056 8.55103,-3.58244 12.82275,-5.38281 0.77336,-0.32525 1.54671,-0.65049 2.34351,-0.9856 0.73742,-0.31026 1.47484,-0.62052 2.23461,-0.94018 0.7023,-0.29471 1.4046,-0.58943 2.12818,-0.89307 1.35862,-0.57747 2.71274,-1.16566 4.06201,-1.76465 C 992.76863,319 992.76863,319 995.3125,319 Z"
     fill="#070707"
     id="path9" />
  <path
     d="m 559,38 c 2.31,0 4.62,0 7,0 0,0.99 0,1.98 0,3 0.69223,-0.487266 1.38445,-0.974531 2.09766,-1.476563 C 573.12937,36.882297 578.45277,37.469031 584,38 c 3.09748,1.19552 5.26526,2.478572 7.9375,4.375 2.89886,0.878441 4.45828,-0.371058 7.07812,-1.625 5.6213,-2.124584 11.77126,-1.069696 17.19141,1.191406 3.61471,2.134177 5.92493,5.322518 7.79297,9.058594 0.11553,2.644791 0.16557,5.253348 0.15625,7.898437 -0.002,0.798444 -0.004,1.596887 -0.005,2.419526 -0.0805,9.140342 -0.84336,18.207432 -1.65105,27.307037 -0.14522,1.700462 -0.28976,3.400983 -0.43359,5.101562 C 621.71885,97.81843 621.36212,101.9094 621,106 c -3.3,-0.33 -6.6,-0.66 -10,-1 0.0909,-1.09353 0.18176,-2.18706 0.27539,-3.31372 0.33998,-4.105431 0.674,-8.211329 1.00635,-12.317384 0.14391,-1.768034 0.28939,-3.535942 0.43652,-5.30371 C 615.17277,67.148694 615.17277,67.148694 612,51 c -3.71524,-2.476829 -6.69638,-2.435385 -11,-2 -2.88215,0.882149 -2.88215,0.882149 -5,2 0.0181,1.272869 0.0361,2.545737 0.0547,3.857178 -0.002,5.180695 -0.42545,10.275172 -0.92969,15.427978 -0.13317,1.412543 -0.13317,1.412543 -0.26904,2.853623 -0.28139,2.974963 -0.56858,5.949332 -0.85596,8.923721 -0.19309,2.030562 -0.38581,4.061161 -0.57813,6.091797 C 592.95233,93.103296 592.47758,98.05177 592,103 c -3.3,0 -6.6,0 -10,0 0.0909,-1.08305 0.18176,-2.16611 0.27539,-3.281982 0.34085,-4.079318 0.67459,-8.159193 1.00635,-12.239258 0.14361,-1.754388 0.28907,-3.508626 0.43652,-5.262696 C 586.49361,64.51524 586.49361,64.51524 583,48 c -2.6092,-1.304599 -4.58943,-1.132659 -7.5,-1.125 -0.97969,-0.0026 -1.95938,-0.0052 -2.96875,-0.0078 C 570.00569,46.830599 570.00569,46.830599 568,48 c -0.53515,2.630787 -0.53515,2.630787 -0.78125,5.851563 -0.11884,1.234116 -0.23767,2.468232 -0.36011,3.739746 -0.1198,1.344541 -0.23934,2.689105 -0.35864,4.033691 -0.12726,1.358957 -0.25528,2.717844 -0.38403,4.07666 C 565.73089,69.799965 565.36411,73.899788 565,78 c -0.10876,1.212363 -0.21753,2.424727 -0.32959,3.673828 C 564.09464,88.114351 563.53804,94.556219 563,101 c -2.97,-0.33 -5.94,-0.66 -9,-1 -0.22969,-9.39292 0.38932,-18.649003 1.17187,-27.999268 0.20245,-2.430062 0.3947,-4.860781 0.58594,-7.291748 C 556.48326,55.729994 557.45823,46.881529 559,38 Z"
     fill="#070707"
     id="path10" />
  <path
     d="m 114,634 c 0.495,3.96 0.495,3.96 1,8 -29.148472,9 -29.148472,9 -36,9 0.337734,1.06219 0.675469,2.12437 1.023438,3.21875 0.450645,1.42704 0.901159,2.85413 1.351562,4.28125 0.221719,0.69609 0.443438,1.39219 0.671875,2.10937 C 83.54589,665.37095 84.830414,670.14676 86,675 c 7.056822,-0.57355 13.464667,-2.08115 20.25,-4.0625 1.92013,-0.5594 3.84197,-1.113 5.76563,-1.66016 1.25731,-0.3675 1.25731,-0.3675 2.54003,-0.74243 2.62298,-0.574 4.7719,-0.84372 7.44434,-0.53491 2.29014,3.4352 2.17843,4.98533 2,9 -14.54233,4.35246 -29.207415,8.11919 -43.942383,11.75171 -1.485361,0.36658 -2.970713,0.73319 -4.456054,1.09985 -0.722802,0.17796 -1.445604,0.35592 -2.190308,0.53926 -6.049851,1.49818 -12.061237,3.12135 -18.06604,4.79033 C 51.907553,696.02263 48.509346,696.55666 45,697 c -0.33,-3.3 -0.66,-6.6 -1,-10 10.56,-2.64 21.12,-5.28 32,-8 -0.809465,-5.76571 -0.809465,-5.76571 -1.972656,-11.40234 -0.177246,-0.74444 -0.354492,-1.48887 -0.53711,-2.25586 -0.182402,-0.75217 -0.364804,-1.50434 -0.552734,-2.2793 -0.18627,-0.77924 -0.372539,-1.55848 -0.564453,-2.36133 C 71.91819,658.8001 71.459494,656.89995 71,655 c -6.065942,0.61286 -11.697062,1.86161 -17.5625,3.5 -5.476707,1.52252 -10.786648,2.83252 -16.4375,3.5 -0.99,-2.97 -1.98,-5.94 -3,-9 10.63128,-3.11768 21.243173,-6.14778 32.048096,-8.60498 4.233582,-0.96994 8.407448,-2.05455 12.576904,-3.27002 6.461916,-1.8775 12.940518,-3.68492 19.4375,-5.4375 1.000474,-0.27892 2.00095,-0.55784 3.03174,-0.84521 1.42482,-0.3802 1.42482,-0.3802 2.87842,-0.76807 1.27242,-0.34672 1.27242,-0.34672 2.57055,-0.70044 2.75227,-0.41873 4.77835,-0.0687 7.45679,0.62622 z"
     fill="#080808"
     id="path11" />
  <path
     d="m 1009.0391,594.68359 c 5.5171,2.00848 9.0202,4.19378 11.9609,9.31641 1.8367,6.41749 1.0711,11.19081 -1.8945,17.08984 -0.97,1.67614 -2.0312,3.29881 -3.1055,4.91016 2.2286,0.0814 4.458,0.13938 6.6875,0.1875 1.8621,0.0522 1.8621,0.0522 3.7618,0.10546 3.813,-0.3146 5.588,-0.91742 8.5507,-3.29296 2.5517,-3.42519 2.2356,-6.90688 2.1875,-11.0625 -0.01,-1.84272 -0.01,-1.84272 -0.02,-3.72266 -0.026,-3.23217 -0.026,-3.23217 -1.168,-6.21484 2.97,0.33 5.94,0.66 9,1 2.9524,7.38091 2.7135,14.6108 0,22 -2.7354,4.90494 -5.933,8.46651 -11,11 -12.7704,0.86613 -25.4881,-1.31896 -38.02731,-3.49219 -5.31281,-0.90758 -10.64392,-1.69991 -15.97265,-2.50781 -0.1875,-3.375 -0.1875,-3.375 0,-7 0.99,-0.66 1.98,-1.32 3,-2 -0.33,-0.61875 -0.66,-1.2375 -1,-1.875 -1.77482,-5.54631 -1.89758,-11.50297 0.1875,-17 5.74522,-9.90557 16.67797,-9.72981 26.85156,-7.44141 z"
     fill="#080808"
     id="path12" />
  <path
     d="m 667.25,51.25 c 6.76732,2.301738 10.79598,4.993433 14.08594,11.359375 2.10788,7.588388 -0.19008,14.873728 -2.08594,22.265625 -0.55211,2.217116 -1.10289,4.434568 -1.65234,6.652344 -0.27184,1.090385 -0.54367,2.180771 -0.82373,3.304199 -1.28625,5.265907 -2.4363,10.560347 -3.56788,15.861327 -1.10459,5.10422 -1.10459,5.10422 -2.20605,7.30713 -3.465,-0.495 -3.465,-0.495 -7,-1 -0.33,-0.99 -0.66,-1.98 -1,-3 -1.485,0.495 -1.485,0.495 -3,1 -7.61455,0.62769 -13.93781,1.0079 -20,-4 -3.93819,-6.48918 -3.74618,-12.612833 -3,-20 1.61275,-5.991467 4.76585,-10.543001 9,-15 3.9552,-1.977599 8.69085,-1.434975 13,-1 3.94448,1.33593 7.05562,3.055619 10,6 1.70083,-3.697448 2.24903,-6.564007 2.1875,-10.625 -0.01,-1.411523 -0.01,-1.411523 -0.0195,-2.851563 C 671.09829,64.873991 671.09829,64.873991 670,62 c -2.92914,-1.170829 -2.92914,-1.170829 -6,-2 -0.66,-0.33 -1.32,-0.66 -2,-1 -2.20729,-0.07093 -4.41667,-0.08415 -6.625,-0.0625 -1.78277,0.01353 -1.78277,0.01353 -3.60156,0.02734 -1.37285,0.0174 -1.37285,0.0174 -2.77344,0.03516 0.58594,-6.152344 0.58594,-6.152344 1,-8 5.12869,-2.564345 11.93727,-1.231125 17.25,0.25 z"
     fill="#060606"
     id="path13" />
  <path
     d="m 172,178 c 4.81546,3.4146 9.12266,6.98503 13.23047,11.22266 2.4246,2.4353 5.00909,4.65778 7.60937,6.90234 4.10689,3.56474 8.12362,7.23107 12.16016,10.875 2.49551,2.24674 4.9918,4.49262 7.48828,6.73828 1.70728,1.53735 3.41295,3.07648 5.11719,4.61719 4.74291,4.28369 9.51966,8.51149 14.39453,12.64453 -1.29224,3.98441 -2.5896,5.63628 -6,8 -0.77344,-0.71285 -1.54688,-1.4257 -2.34375,-2.16016 C 215.35406,229.19921 207.12292,221.66377 198,215 c -2.10974,2.22411 -4.21281,4.45393 -6.3125,6.6875 -0.5949,0.62584 -1.18981,1.25168 -1.80273,1.89648 -3.08402,3.29077 -5.75636,6.3974 -7.88477,10.41602 2.49783,2.35648 4.99867,4.70974 7.5,7.0625 0.69609,0.65678 1.39219,1.31355 2.10937,1.99023 4.14888,3.89918 8.35662,7.6744 12.74415,11.30445 1.75962,1.75571 2.66688,3.37301 3.64648,5.64282 -1.32,1.65 -2.64,3.3 -4,5 -3.17051,-0.58341 -4.8565,-1.4691 -7.17188,-3.69531 -0.57774,-0.54745 -1.15548,-1.0949 -1.75073,-1.65894 -0.90456,-0.87652 -0.90456,-0.87652 -1.82739,-1.77075 -1.26095,-1.19743 -2.52266,-2.39405 -3.78516,-3.58984 -0.60215,-0.57348 -1.2043,-1.14695 -1.8247,-1.7378 -1.90173,-1.79415 -3.84818,-3.52701 -5.82764,-5.23486 -3.15203,-2.72006 -6.23692,-5.50619 -9.3125,-8.3125 -3.11907,-2.84524 -6.24755,-5.672 -9.4375,-8.4375 -3.4632,-3.01242 -6.86318,-6.08984 -10.25,-9.1875 -0.49943,-0.4556 -0.99886,-0.91121 -1.51343,-1.38062 C 148.11468,217.07284 145.0353,214.07415 142,211 c 1.65,-1.98 3.3,-3.96 5,-6 4.56679,1.24549 6.94624,3.76209 10.11719,7.07031 5.46404,5.60007 11.61306,10.28095 17.88281,14.92969 2.29931,-2.40949 4.58805,-4.82878 6.875,-7.25 0.65098,-0.68191 1.30195,-1.36383 1.97266,-2.06641 0.62519,-0.66386 1.25039,-1.32773 1.89453,-2.01172 0.57605,-0.60747 1.1521,-1.21494 1.7456,-1.84082 1.53193,-1.85493 2.52829,-3.64362 3.51221,-5.83105 -11.98564,-11.60091 -11.98564,-11.60091 -25,-22 1.55195,-3.3276 3.30622,-5.4858 6,-8 z"
     fill="#060606"
     id="path14" />
  <path
     d="m 968.24609,272.99219 c 5.59192,3.74204 8.5685,8.72227 10.75391,15.00781 0.92608,5.37131 -0.331,8.59582 -3.32032,12.95313 C 970.70281,307.01797 964.14224,312.63895 957,316 c -0.99,0 -1.98,0 -3,0 -1.62574,-2.20312 -1.62574,-2.20312 -3.35547,-5.25 -0.93296,-1.62422 -0.93296,-1.62422 -1.88477,-3.28125 -0.6426,-1.14468 -1.28519,-2.28937 -1.94726,-3.46875 -0.6542,-1.14468 -1.3084,-2.28937 -1.98243,-3.46875 C 943.20994,297.69305 941.60051,294.8493 940,292 c -1.09571,0.60457 -2.19141,1.20914 -3.32032,1.83203 -0.61633,0.34007 -1.23266,0.68015 -1.86767,1.03052 -2.66608,1.67357 -4.69246,3.83087 -6.81201,6.13745 -0.33,0.33 -0.66,0.66 -1,1 -0.58071,4.52191 -0.45749,8.06673 1.5625,12.1875 2.87842,3.32125 5.99857,6.08841 9.4375,8.8125 -2.68842,2.25246 -4.64642,3.88214 -8,5 -6.65097,-3.97944 -11.45108,-10.66929 -13.60157,-18.07031 -1.06943,-5.17943 -0.83508,-8.77808 1.91407,-13.30469 8.86023,-12.10078 34.02542,-30.66007 49.93359,-23.63281 z"
     fill="#070707"
     id="path15" />
  <path
     d="M 761.39844,83.917969 C 767.00761,86.797095 771.13765,90.275303 774,96 c 0.99433,10.53982 -3.46731,20.66942 -8,30 -6.42972,-1.90899 -12.27777,-4.94716 -18.27539,-7.89844 -0.82049,-0.39703 -1.64097,-0.79406 -2.48633,-1.20312 -0.74209,-0.36432 -1.48419,-0.72865 -2.24878,-1.10401 C 740.8927,114.81458 740.8927,114.81458 738,115 c -2.49928,5.72753 -4.04473,10.71957 -3,17 2.309,4.42559 5.27059,5.92508 9.82813,7.44141 3.38112,0.8696 6.69584,1.24823 10.17187,1.55859 -1.875,5.75 -1.875,5.75 -3,8 -8.43075,0.6245 -15.41422,-1.60541 -22,-7 -3.39105,-2.99978 -4.83817,-5.52285 -5.33593,-10.06641 -0.13418,-12.00835 3.35758,-20.2826 8.77343,-30.74609 0.37117,-0.71777 0.74234,-1.435532 1.12476,-2.175049 5.6389,-10.532585 13.87063,-20.056867 26.83618,-15.094482 z"
     fill="#060606"
     id="path16" />
  <path
     d="m 1028.4141,409.72656 c 3.7414,3.00422 5.6913,6.65127 6.5859,11.27344 0.4632,5.45182 0.694,10.34053 -1.4375,15.4375 -7.3763,7.37637 -18.3908,11.31902 -28.5625,12.5625 -2.9809,-9.60272 -5.70823,-18.9939 -6.99996,-29 -2.25818,0.87851 -4.50493,1.77655 -6.75,2.6875 -0.63422,0.24428 -1.26844,0.48855 -1.92188,0.74023 -4.31565,1.77571 -6.90616,3.56013 -9.32812,7.57227 -1.05999,7.38012 3.06911,14.10367 7,20 -2.64632,1.28535 -4.60256,2 -7.5625,2 -3.61664,-1.48375 -4.6113,-3.59948 -6.4375,-7 -2.95765,-7.24623 -3.5449,-16.13775 -0.625,-23.4375 C 980.09933,415.02211 989.87197,411.96568 1000,409 c 0.8263,-0.24879 1.6526,-0.49758 2.5039,-0.75391 8.3485,-2.19859 18.2649,-3.06802 25.9102,1.48047 z"
     fill="#070707"
     id="path17" />
  <path
     d="m 485.06641,961.90234 c 3.4668,0.0488 3.4668,0.0488 6.93359,0.0977 -0.43123,7.8746 -1.01635,15.69494 -1.97265,23.52343 -0.0879,0.72359 -0.1757,1.44718 -0.26621,2.19269 -0.36203,2.95817 -0.72844,5.91567 -1.10708,8.87177 -1.04608,8.22321 -1.8628,16.40801 -2.02515,24.70121 -0.0262,0.7008 -0.0524,1.4016 -0.0794,2.1236 -0.0147,3.5478 0.382,5.4784 2.28615,8.5067 3.04148,2.9238 5.5402,3.2339 9.6018,3.2681 0.76184,0.014 1.52368,0.028 2.3086,0.043 2.76009,-0.2823 4.04469,-0.5021 6.2539,-2.2305 2.52294,-5.4495 3.66711,-10.7029 4.4375,-16.625 0.11707,-0.8523 0.23413,-1.7046 0.35474,-2.5828 2.09795,-15.88366 3.5933,-31.85357 5.20776,-47.7922 3.3,0 6.6,0 10,0 -0.56418,11.63569 -1.70492,23.14913 -3.1018,34.7119 -0.3385,2.8114 -0.66657,5.6238 -0.9939,8.4365 -0.21618,1.8152 -0.43295,3.6303 -0.65039,5.4453 -0.0959,0.8273 -0.19182,1.6545 -0.29063,2.5068 -2.18177,17.7884 -2.18177,17.7884 -8.90078,23.712 -6.44154,4.6011 -14.44365,3.8604 -22.0625,3.1875 -5.37969,-1.5282 -9.60585,-3.6977 -12.5625,-8.5625 -4.19723,-10.0369 -2.36594,-20.7351 -1.16015,-31.2891 0.1308,-1.1806 0.26161,-2.3613 0.39638,-3.5777 0.27536,-2.47262 0.55367,-4.94492 0.83482,-7.41689 0.43156,-3.80173 0.85179,-7.60459 1.27075,-11.40772 0.26952,-2.40763 0.53968,-4.81518 0.81055,-7.22266 0.12608,-1.14151 0.25216,-2.28303 0.38206,-3.45913 0.18008,-1.56831 0.18008,-1.56831 0.36379,-3.16831 0.10437,-0.9239 0.20873,-1.84781 0.31627,-2.79971 0.46072,-2.77503 0.58777,-3.06035 3.41444,-3.19394 z"
     fill="#060606"
     id="path18" />
  <path
     d="m 245,830 c 4.97428,4.08195 10.0662,9.17143 11.625,15.5625 -0.98265,3.83234 -3.47581,5.14121 -6.625,7.4375 -0.40219,-0.961 -0.40219,-0.961 -0.8125,-1.94141 -3.17218,-7.00175 -6.87332,-13.0346 -14.35156,-15.88281 -5.33186,-1.02681 -9.36511,0.30629 -14.02735,2.91016 C 214.77285,842.19931 209.37295,847.06826 204,852 c -0.82371,0.75152 -1.64742,1.50305 -2.49609,2.27734 -5.282,5.04236 -10.12042,10.42764 -11.56641,17.78516 0.0755,4.75668 1.07303,7.30428 4.0625,10.9375 1.91775,1.84776 3.86173,3.39629 6,5 3.16018,-1.40794 5.38967,-3.09662 7.89062,-5.47656 0.70899,-0.67032 1.41797,-1.34063 2.14844,-2.03125 0.72961,-0.69867 1.45922,-1.39735 2.21094,-2.11719 0.74508,-0.70641 1.49016,-1.41281 2.25781,-2.14063 1.83474,-1.74065 3.66526,-3.48552 5.49219,-5.23437 -0.72527,-3.34218 -1.50661,-4.81685 -4.0625,-7.125 -1.66016,-1.50781 -1.66016,-1.50781 -2.9375,-2.875 0,-0.66 0,-1.32 0,-2 1.96148,-1.38938 3.96167,-2.72604 6,-4 1.75653,1.70202 3.50507,3.41115 5.25,5.125 0.49113,0.47437 0.98227,0.94875 1.48828,1.4375 3.28172,3.23796 5.82252,6.52316 8.26172,10.4375 -4.91809,4.64555 -9.8431,9.28365 -14.77637,13.91309 -1.38701,1.30173 -2.77322,2.60431 -4.1582,3.9082 -1.64217,1.5438 -3.29008,3.08116 -4.94043,4.61621 -0.92555,0.86496 -1.85109,1.72992 -2.80469,2.62109 C 205,899 205,899 202,900 c -8.29327,-4.3455 -19.07634,-12.67298 -22,-22 -1.09971,-6.22273 -0.76168,-11.56957 2.375,-17.125 C 195.45248,842.52909 221.27937,814.36952 245,830 Z"
     fill="#060606"
     id="path19" />
  <path
     d="M 316.19922,913.67187 C 321.88537,916.14129 326.22645,920.45289 329,926 c 0.46236,6.28941 -0.59473,10.52474 -3.25,16.1875 -0.30035,0.68513 -0.6007,1.37027 -0.91015,2.07617 -1.83178,4.04938 -3.88318,7.36756 -6.83985,10.73633 -5.13839,-1.74747 -9.54289,-4.65365 -14.125,-7.5 -0.81082,-0.49887 -1.62164,-0.99774 -2.45703,-1.51172 C 298.24702,944.03329 295.09989,942.06659 292,940 c -0.28875,0.9075 -0.5775,1.815 -0.875,2.75 C 290,946 290,946 288.96094,947.89453 287.17397,951.80987 287.25743,955.81024 288,960 c 4.3226,5.37404 10.57784,6.9545 17,9 -1.875,4.75 -1.875,4.75 -3,7 -6.21674,0.81799 -10.87919,-1.7722 -16,-5 -4.31292,-3.47408 -7.31168,-6.64423 -9,-12 -1.32968,-14.34658 9.31732,-28.43385 18,-39 6.3231,-6.72234 12.17993,-9.08358 21.19922,-6.32813 z"
     fill="#070707"
     id="path20" />
  <path
     d="m 706.11719,958.78516 c 6.79101,4.86637 11.99207,16.40237 13.48291,24.45703 0.13197,0.91008 0.26394,1.82016 0.3999,2.75781 -0.71655,0.23711 -1.43311,0.47422 -2.17138,0.71851 -3.23506,1.07144 -6.46935,2.14519 -9.70362,3.21899 -1.69189,0.55978 -1.69189,0.55978 -3.41797,1.13086 -1.07636,0.35772 -2.15273,0.71543 -3.26171,1.08399 -0.995,0.32992 -1.99,0.65984 -3.01514,0.99975 -2.39837,0.77883 -2.39837,0.77883 -4.43018,1.8479 1.64155,6.0057 3.16521,10.9009 8,15 5.63438,1.3897 10.30131,-0.1618 15.27344,-2.832 1.7997,-1.1335 1.7997,-1.1335 3.32813,-2.8047 C 722,1003 722,1003 724,1003 c 1.27485,2.6247 1.99099,4.6307 2.0625,7.5625 -1.61153,3.697 -4.58808,4.8017 -8.0625,6.4375 -1.05187,0.5775 -2.10375,1.155 -3.1875,1.75 -5.14773,2.0475 -10.40311,2.2938 -15.8125,1.25 -9.00527,-4.5096 -12.56305,-14.1254 -16,-23 -0.65355,-1.63195 -0.65355,-1.63195 -1.32031,-3.29687 -2.96004,-8.32122 -5.43321,-19.75289 -1.53906,-28.16797 1.48965,-1.85423 2.92471,-3.16159 4.85937,-4.53516 0.84563,-0.63937 1.69125,-1.27875 2.5625,-1.9375 5.96725,-1.84442 12.58785,-2.49013 18.55469,-0.27734 z"
     fill="#080808"
     id="path21" />
  <path
     d="m 26,482 c 2.97,0 5.94,0 9,0 -0.66,8.91 -1.32,17.82 -2,27 4.29,0 8.58,0 13,0 2.231362,0.10712 4.4623,0.24018 6.6875,0.4375 0.973242,0.0812 1.946484,0.16242 2.949219,0.24609 C 58,510 58,510 60,511 59.9884,510.07059 59.9768,509.14117 59.96484,508.18359 59.87522,495.9051 59.87522,495.9051 61,490 c 2.64,0 5.28,0 8,0 0.11459,7.41017 -0.0884,14.64206 -1,22 0.585234,-0.0232 1.170469,-0.0464 1.773437,-0.0703 C 78.944852,511.73689 87.915795,512.88071 97,514 c 0.06059,-1.29035 0.121172,-2.5807 0.183594,-3.91016 0.08446,-1.71745 0.16911,-3.4349 0.253906,-5.15234 0.03932,-0.84756 0.07863,-1.69512 0.119141,-2.56836 C 97.800034,497.52 98.22598,492.79372 99,488 c 2.64,0 5.28,0 8,0 0.13425,8.31263 -0.24386,16.47338 -1,24.75 -0.0954,1.09055 -0.19078,2.18109 -0.28906,3.30469 -0.23236,2.64888 -0.46939,5.29725 -0.71094,7.94531 -14.073407,-0.64872 -28.110598,-1.6333 -42.155762,-2.72949 -3.498639,-0.2728 -6.997582,-0.54143 -10.496582,-0.80957 -2.253925,-0.17424 -4.507832,-0.34871 -6.761719,-0.52344 -1.03138,-0.0792 -2.062761,-0.15839 -3.125396,-0.23999 C 25.35617,518.35617 25.35617,518.35617 24,517 c -0.02907,-1.82291 0.01361,-3.64704 0.08594,-5.46875 0.04383,-1.12922 0.08766,-2.25844 0.132813,-3.42188 0.05156,-1.19109 0.103124,-2.38218 0.15625,-3.60937 0.04383,-1.16016 0.08766,-2.32031 0.132812,-3.51563 C 24.76732,494.61202 25.202271,488.32775 26,482 Z"
     fill="#060606"
     id="path22" />
  <path
     d="m 844,114 c 4.3381,1.4567 7.59561,3.79616 11.125,6.625 1.14096,0.89707 2.28291,1.79288 3.42578,2.6875 0.57186,0.44859 1.14372,0.89719 1.73291,1.35938 4.15809,3.21763 8.44485,6.26362 12.71631,9.32812 -0.69379,3.26012 -1.45894,4.79038 -4,7 -2.88648,-1.34473 -5.29023,-2.88166 -7.78516,-4.85547 -0.69544,-0.53947 -1.3909,-1.07894 -2.10742,-1.63476 -1.45473,-1.13787 -2.90523,-2.28117 -4.35156,-3.42969 -0.69416,-0.53561 -1.38832,-1.07121 -2.10352,-1.62305 -0.94371,-0.74286 -0.94371,-0.74286 -1.90649,-1.50073 C 850.16972,127.64072 849.59359,127.32514 849,127 c -3.31559,1.1052 -3.85539,1.75913 -5.88281,4.45703 -0.52723,0.70061 -1.05446,1.40121 -1.59766,2.12305 -0.81404,1.10505 -0.81404,1.10505 -1.64453,2.23242 -0.55043,0.7251 -1.10086,1.45019 -1.66797,2.19727 -2.60434,3.49698 -4.12622,5.66699 -5.20703,9.99023 4.95,3.96 9.9,7.92 15,12 -1.32,1.98 -2.64,3.96 -4,6 -4.36874,-1.47778 -7.55321,-3.74988 -11.1875,-6.5625 -3.74021,-2.98179 -3.74021,-2.98179 -7.8125,-5.4375 -0.23977,0.53754 -0.47953,1.07508 -0.72656,1.62891 -1.61355,3.00436 -3.58673,5.59275 -5.64844,8.30859 -0.77086,1.01965 -1.54172,2.0393 -2.33594,3.08984 C 814,170 814,170 811.64844,172.62891 c -1.87375,2.15945 -1.87375,2.15945 -1.48999,4.32373 1.07983,2.62706 2.35496,3.53254 4.65796,5.17627 0.76377,0.56009 1.52753,1.12019 2.31445,1.69726 0.80244,0.57299 1.60488,1.14598 2.43164,1.73633 1.59102,1.13826 3.17602,2.285 4.75391,3.44141 0.70584,0.50346 1.41168,1.00691 2.13891,1.52563 0.50975,0.48525 1.01949,0.9705 1.54468,1.47046 0,3.51716 -0.82446,4.37122 -3,7 -3.53953,-1.27772 -6.26444,-2.75404 -9.21484,-5.08203 -0.76893,-0.60264 -1.53786,-1.20528 -2.33008,-1.82617 -0.78955,-0.62842 -1.5791,-1.25684 -2.39258,-1.9043 -0.78568,-0.61682 -1.57137,-1.23363 -2.38086,-1.86914 C 804.39739,184.94474 800.16984,181.51391 796,178 c 3.92605,-6.06052 8.08511,-11.83695 12.5625,-17.5 1.24018,-1.58157 2.47974,-3.16361 3.71875,-4.74609 0.62133,-0.79262 1.24266,-1.58523 1.88281,-2.40186 2.8248,-3.61889 5.61398,-7.26457 8.39844,-10.91455 0.52384,-0.68659 1.04769,-1.37317 1.5874,-2.08057 1.06443,-1.3954 2.12872,-2.79091 3.19287,-4.18652 1.76023,-2.3053 3.52467,-4.60733 5.29004,-6.90869 0.59482,-0.77594 1.18965,-1.55187 1.80249,-2.35132 1.14207,-1.48961 2.28478,-2.97873 3.42823,-4.46728 0.51296,-0.66959 1.02593,-1.33918 1.55444,-2.02906 0.45141,-0.58829 0.90283,-1.17659 1.36792,-1.78271 C 841.9078,117.12389 842.95765,115.56352 844,114 Z"
     fill="#060606"
     id="path23" />
  <path
     d="m 271,860 c 2.49362,1.20381 4.68143,2.45429 7,4 -0.53489,4.10717 -2.72045,6.17833 -5.5,9.125 -3.11379,3.18282 -3.11379,3.18282 -5.5,6.875 0.66387,0.29133 1.32773,0.58266 2.01172,0.88281 5.71397,2.65262 9.44972,4.86642 12.98828,10.11719 1.59139,4.77418 2.15286,9.42024 0.0469,14.13281 -3.38247,5.26811 -7.57377,9.96183 -11.6499,14.7002 -4.49738,5.22894 -8.75222,10.63082 -12.98681,16.07324 -2.11559,2.71563 -4.25302,5.41109 -6.41016,8.09375 -2.88438,-1.293 -4.87219,-2.65941 -7,-5 1.54444,-3.4851 3.62475,-6.14322 6.0625,-9.0625 0.80437,-0.97066 1.60875,-1.94133 2.4375,-2.94141 0.825,-0.98871 1.65,-1.97742 2.5,-2.99609 3.03217,-3.64168 6.03523,-7.30319 9,-11 0.76184,-0.94231 1.52367,-1.88461 2.30859,-2.85547 5.69876,-7.28295 5.69876,-7.28295 6.69141,-16.14453 -2.57261,-3.90041 -4.33096,-4.82833 -8.85156,-5.98828 -2.1151,-0.28484 -2.1151,-0.28484 -4.14844,-0.0117 -2.35733,1.93718 -3.70342,3.34689 -5.4375,5.75 -0.4639,0.59474 -0.9278,1.18948 -1.40576,1.80225 -0.95025,1.21961 -1.89011,2.44739 -2.81934,3.6831 -1.91357,2.52488 -3.93865,4.95268 -5.9624,7.38965 -2.28613,2.79507 -4.55356,5.60087 -6.79297,8.43359 -0.79019,0.99129 -1.58039,1.98258 -2.39453,3.00391 -0.7077,0.89848 -1.41539,1.79695 -2.14453,2.72266 -1.95261,2.11687 -3.39498,3.16159 -6.04297,4.21484 -1.65,-1.32 -3.3,-2.64 -5,-4 1.54444,-3.4851 3.62475,-6.14322 6.0625,-9.0625 0.80824,-0.97324 1.61648,-1.94648 2.44922,-2.94922 0.82113,-0.98613 1.64226,-1.97226 2.48828,-2.98828 1.45978,-1.79049 2.91814,-3.58214 4.375,-5.375 3.35209,-4.1009 6.75648,-8.15281 10.1875,-12.1875 3.89765,-4.58531 7.70927,-9.22581 11.44922,-13.94141 C 268.83077,862.16923 268.83077,862.16923 271,860 Z"
     fill="#070707"
     id="path24" />
  <path
     d="m 349,936 c 1.98,0.66 3.96,1.32 6,2 0,0.99 0,1.98 0,3 0.85271,-0.0522 0.85271,-0.0522 1.72266,-0.10547 7.83704,-0.27475 13.40459,1.7361 19.27734,7.10547 3.18326,4.77489 2.72586,9.41812 2,15 -1.59881,4.82586 -3.77744,9.27784 -6.0625,13.8125 -0.60082,1.2336 -1.19936,2.46831 -1.79565,3.7041 -1.16713,2.41194 -2.3468,4.81619 -3.53443,7.21826 -2.03918,4.14217 -3.98854,8.32196 -5.91992,12.51514 -0.89552,1.9168 -1.7912,3.8336 -2.6875,5.75 -3.33823,-0.6145 -6.02209,-1.3456 -9,-3 1.37943,-4.43606 3.11242,-8.51198 5.15234,-12.68359 0.3008,-0.6186 0.6016,-1.23719 0.91152,-1.87453 0.9544,-1.96151 1.91369,-3.92058 2.87364,-5.87938 0.95565,-1.95557 1.9102,-3.91167 2.86293,-5.86867 0.86625,-1.77853 1.73581,-3.55544 2.60558,-5.33226 4.74215,-9.75751 4.74215,-9.75751 3.59399,-20.36157 -4.55644,-2.00039 -9.10011,-2.49312 -14,-3 -0.38394,1.2433 -0.38394,1.2433 -0.77563,2.51172 -1.37052,3.90466 -3.03784,7.56824 -4.81421,11.30078 -0.3452,0.73195 -0.69039,1.46389 -1.04604,2.21802 -1.09738,2.32467 -2.1995,4.64705 -3.30162,6.96948 -0.73662,1.55976 -1.47295,3.11965 -2.20898,4.67969 C 337.95501,981.81412 335.0566,987.94214 332,994 c -3.37463,-0.54724 -5.08235,-1.0549 -8,-3 0.6458,-4.68402 2.54458,-8.65354 4.57031,-12.87109 0.35932,-0.75878 0.71863,-1.51756 1.08884,-2.29934 1.15009,-2.42486 2.30801,-4.8459 3.46585,-7.26707 0.75569,-1.59287 1.5109,-3.18597 2.26562,-4.7793 C 339.8146,954.46447 344.34313,945.20463 349,936 Z"
     fill="#070707"
     id="path25" />
  <path
     d="m 572.27734,983.66016 c 4.35001,1.87123 6.79016,4.11508 9.03125,8.26563 2.06986,6.20958 1.89104,12.91031 2.00781,19.38281 0.0208,0.9667 0.0416,1.9334 0.063,2.9295 0.065,3.0664 0.12416,6.1329 0.18312,9.1994 0.0432,2.0879 0.0869,4.1758 0.13086,6.2637 0.10666,5.0995 0.20807,10.1991 0.30664,15.2988 -3.3,0 -6.6,0 -10,0 -0.0198,-1.2304 -0.0396,-2.4608 -0.0601,-3.7285 -0.0764,-4.5923 -0.16508,-9.1844 -0.25732,-13.7764 -0.0381,-1.9823 -0.073,-3.9648 -0.10449,-5.9472 -0.046,-2.86 -0.10392,-5.7195 -0.16406,-8.5791 -0.0115,-0.8775 -0.0231,-1.7549 -0.035,-2.6589 -0.15393,-9.2204 -0.15393,-9.2204 -4.00406,-17.3099 -3.43483,-1.44624 -6.70077,-1.55257 -10.375,-1 -1.98,0.99 -1.98,0.99 -4,2 0,17.16 0,34.32 0,52 -2.97,0 -5.94,0 -9,0 -0.82574,-20.3469 -1.13637,-40.6377 -1,-61 2.31,0 4.62,0 7,0 0.33,0.66 0.66,1.32 1,2 0.94875,-0.66 1.8975,-1.32 2.875,-2 5.27989,-2.98661 10.63555,-3.01152 16.40234,-1.33984 z"
     fill="#070707"
     id="path26" />
  <path
     d="m 468,26 c 2.09351,3.401949 2.17942,6.052724 2,10 -1.0016,-0.04641 -2.0032,-0.09281 -3.03516,-0.140625 C 456.78052,35.392024 456.78052,35.392024 448,40 c -5.96595,9.314187 -1.0864,25.764615 1,36 1.69664,7.59172 3.81294,14.420332 8,21 0,0.66 0,1.32 0,2 8.33557,2.77852 15.30295,0.516634 23,-3 0.99,-0.33 1.98,-0.66 3,-1 0.495,4.455 0.495,4.455 1,9 -8.48431,6.06022 -15.7664,6.72841 -26,6 -4.46022,-0.78073 -7.24859,-2.94932 -10.125,-6.375 C 437.13337,87.697748 432.74697,62.938209 435,44 c 1.59668,-6.790595 5.17188,-11.250776 11,-15 6.80948,-4.039779 14.3264,-3.290993 22,-3 z"
     fill="#080808"
     id="path27" />
  <path
     d="m 94,538 c 2.97,0 5.94,0 9,0 3.86458,7.89018 4.60325,17.03989 2.30859,25.57031 -2.66705,5.86976 -6.960945,9.25587 -12.68359,12.11719 -16.006923,5.27569 -43.491852,7.30997 -58.96875,0.24219 C 28.238511,572.8086 24.486935,568.77609 22,563 c -0.258789,-2.15063 -0.258789,-2.15063 -0.265625,-4.44141 -0.0026,-0.8308 -0.0052,-1.6616 -0.0078,-2.51757 0.0077,-0.85916 0.01547,-1.71833 0.02344,-2.60352 -0.0077,-0.86303 -0.01547,-1.72605 -0.02344,-2.61523 0.0026,-0.82952 0.0052,-1.65903 0.0078,-2.51368 0.0023,-0.75482 0.0045,-1.50965 0.0068,-2.28735 C 22,544 22,544 24,541 c 2.164063,-0.29297 2.164063,-0.29297 4.625,-0.1875 0.817266,0.0271 1.634531,0.0541 2.476563,0.082 0.939726,0.0522 0.939726,0.0522 1.898437,0.10547 -0.33,1.155 -0.66,2.31 -1,3.5 -1.372169,5.58739 -1.863054,10.32182 0.3125,15.8125 2.904729,4.62605 4.648719,5.96484 10.098877,7.26416 5.488136,0.89752 11.041579,0.76011 16.588623,0.73584 1.288418,-0.004 2.576836,-0.008 3.904297,-0.0127 C 80.200091,568.54198 80.200091,568.54198 95,561 c 2.502072,-7.50622 0.959453,-15.52958 -1,-23 z"
     fill="#050505"
     id="path28" />
  <path
     d="m 232,148 c 2.42325,3.00414 4.05121,6.00191 5.63672,9.51562 0.49049,1.07774 0.98098,2.15548 1.48633,3.26587 0.51627,1.14461 1.03254,2.28922 1.56445,3.46851 5.00158,10.98031 5.00158,10.98031 10.3125,21.8125 3.54045,6.99115 7.0092,14.01561 10.4375,21.0625 0.79954,1.62047 0.79954,1.62047 1.61523,3.27368 0.49694,1.02601 0.99387,2.05203 1.50586,3.10913 0.44658,0.91411 0.89316,1.82821 1.35327,2.77002 1.18733,2.97032 1.85973,5.52886 2.08814,8.72217 -2.3125,2.875 -2.3125,2.875 -5,5 -0.66,0 -1.32,0 -2,0 -0.44731,-1.02481 -0.89461,-2.04961 -1.35547,-3.10547 -0.61008,-1.36094 -1.22079,-2.72161 -1.83203,-4.08203 -0.29197,-0.67354 -0.58394,-1.34707 -0.88477,-2.04102 -0.2997,-0.66064 -0.59941,-1.32129 -0.9082,-2.00195 -0.26708,-0.60223 -0.53415,-1.20447 -0.80933,-1.82495 -3.02199,-4.85579 -7.51478,-8.02626 -12.19067,-11.16724 -0.56633,-0.38261 -1.13266,-0.76522 -1.71615,-1.15942 -1.82674,-1.23219 -3.65866,-2.4564 -5.49088,-3.68042 -1.26129,-0.84842 -2.52228,-1.6973 -3.78296,-2.54663 C 228.35796,195.91984 224.67953,193.45916 221,191 c -0.99741,-0.66773 -1.99482,-1.33547 -3.02246,-2.02344 C 212.99233,185.63996 207.99959,182.31501 203,179 c -0.99,-0.66 -1.98,-1.32 -3,-2 0,-2 0,-2 2.1875,-4.1875 C 205,171 205,171 207.35718,171.18164 c 3.04521,0.94296 5.1368,2.26167 7.74048,4.09961 1.44197,1.01018 1.44197,1.01018 2.91308,2.04077 1.00708,0.71873 2.01416,1.43747 3.05176,2.17798 1.02899,0.72453 2.05799,1.44907 3.11816,2.19556 6.33343,4.47675 12.59271,9.03161 18.70996,13.80053 2.12891,1.67334 2.12891,1.67334 5.10938,2.50391 -0.49887,-0.85336 -0.99773,-1.70672 -1.51172,-2.58594 -5.14415,-8.91262 -9.9424,-17.99523 -14.61328,-27.16406 -0.59257,-1.14259 -1.18513,-2.28519 -1.79565,-3.4624 -0.54439,-1.07975 -1.08878,-2.1595 -1.64966,-3.27198 -0.49259,-0.96647 -0.98517,-1.93294 -1.49268,-2.92871 C 225.91849,155.77496 225.78,154.69822 227,152 c 2.5625,-2.25 2.5625,-2.25 5,-4 z"
     fill="#080808"
     id="path29" />
  <path
     d="m 873,840 c 2.5138,2.29999 4.12932,4.68306 5.82812,7.62891 0.81743,1.40947 0.81743,1.40947 1.65137,2.84741 0.58427,1.01844 1.16854,2.03688 1.77051,3.08618 0.61263,1.05904 1.22525,2.11809 1.85644,3.20923 1.96925,3.40672 3.93177,6.81725 5.89356,10.22827 1.30177,2.258 2.60385,4.51581 3.90625,6.77344 1.91201,3.31456 3.82372,6.62929 5.73364,9.94507 5.06696,8.79205 10.19119,17.54905 15.36011,26.28149 -1.98,2.31 -3.96,4.62 -6,7 -2.91426,-3.25052 -4.67857,-6.45732 -6.5,-10.375 -3.63595,-6.82314 -8.7715,-9.28712 -15.5,-12.625 -2.676,-1.43997 -5.34011,-2.90088 -8.00513,-4.36108 -3.01923,-1.65225 -6.04493,-3.29198 -9.073,-4.92798 -1.01578,-0.54914 -2.03156,-1.09828 -3.07812,-1.66407 -2.07786,-1.12288 -4.15599,-2.24527 -6.23438,-3.36718 C 855.36989,876.84609 850.15478,873.98511 845,871 c 1.293,-2.88438 2.65941,-4.87219 5,-7 4.12841,1.26253 7.6905,2.7983 11.41406,4.97656 1.00354,0.58508 2.00707,1.17015 3.04102,1.77295 1.04607,0.61891 2.09215,1.23782 3.16992,1.87549 1.06928,0.62793 2.13855,1.25587 3.24023,1.90283 7.20997,4.26073 14.29083,8.63939 21.13477,13.47217 -1.5735,-3.26879 -3.36543,-6.36181 -5.23047,-9.47266 -0.63873,-1.06541 -1.27746,-2.13082 -1.93555,-3.22851 -1.00063,-1.66386 -1.00063,-1.66386 -2.02148,-3.36133 -0.64775,-1.08217 -1.29551,-2.16434 -1.96289,-3.2793 -0.64518,-1.07443 -1.29035,-2.14886 -1.95508,-3.25586 -0.63986,-1.06621 -1.27972,-2.13243 -1.93896,-3.23095 -2.48092,-4.02336 -5.11568,-7.93679 -7.79663,-11.82935 C 868,848 868,848 868.18677,845.83179 869.29796,843.32886 870.9863,841.81883 873,840 Z"
     fill="#070707"
     id="path30" />
  <path
     d="m 873,160 c 2.31,1.98 4.62,3.96 7,6 -2.02189,7.78122 -4.3863,15.39773 -7,23 0.61521,-0.25282 1.23041,-0.50564 1.86426,-0.76611 2.78901,-1.1357 5.58697,-2.24745 8.38574,-3.35889 0.96809,-0.39832 1.93617,-0.79664 2.93359,-1.20703 0.93457,-0.36738 1.86914,-0.73477 2.83203,-1.11328 0.85884,-0.34563 1.71768,-0.69126 2.60254,-1.04737 C 894,181 894,181 896.06152,181.59033 c 2.48227,1.80512 4.12561,3.94935 5.93848,6.40967 -4.04124,1.45951 -8.08307,2.9174 -12.125,4.375 -1.14211,0.4125 -2.28422,0.825 -3.46094,1.25 -1.10859,0.39961 -2.21719,0.79922 -3.35937,1.21094 -1.01594,0.36657 -2.03189,0.73315 -3.07862,1.11084 C 877,197 877,197 873.74731,197.84424 c -2.86417,0.89005 -2.86417,0.89005 -4.02343,3.24365 -0.24275,0.84756 -0.4855,1.69512 -0.7356,2.56836 -0.28295,0.94102 -0.5659,1.88203 -0.85742,2.85156 -0.27006,0.98742 -0.54012,1.97485 -0.81836,2.99219 -0.28166,0.95648 -0.56332,1.91297 -0.85352,2.89844 -1.11999,3.81781 -2.19298,7.64816 -3.2622,11.48047 -0.25701,0.8959 -0.51402,1.79179 -0.77881,2.71484 -0.33802,1.20173 -0.33802,1.20173 -0.68286,2.42773 C 861,231 861,231 859,233 c -1.98,-1.98 -3.96,-3.96 -6,-6 2.25397,-8.8143 5.06244,-17.39631 8,-26 -3.31416,1.30833 -6.62604,2.62236 -9.9375,3.9375 -0.94553,0.37318 -1.89106,0.74637 -2.86523,1.13086 -0.89913,0.35771 -1.79825,0.71543 -2.72461,1.08398 -1.24898,0.49488 -1.24898,0.49488 -2.5232,0.99976 -1.91507,0.69137 -1.91507,0.69137 -2.94946,1.8479 -2.25,0.375 -2.25,0.375 -5,0 -2.8125,-2.375 -2.8125,-2.375 -5,-5 0,-0.66 0,-1.32 0,-2 0.60586,-0.17016 1.21172,-0.34031 1.83594,-0.51563 5.30983,-1.53576 10.39267,-3.27892 15.44922,-5.51562 C 850,196 850,196 853.30859,195.59375 857.33066,194.97286 859.67325,194.39083 863,192 c 3.02498,-5.63432 4.13553,-12.06111 5.40332,-18.27441 C 870.96193,162.03807 870.96193,162.03807 873,160 Z"
     fill="#070707"
     id="path31" />
  <path
     d="m 987,550 c 14.4248,-0.1399 28.8303,0.0834 43.25,0.4375 0.8348,0.0196 1.6697,0.0393 2.5298,0.0595 12.0874,0.28817 24.1493,0.80918 36.2202,1.50296 0,3.3 0,6.6 0,10 -15.5362,0.20385 -31.0394,-0.42482 -46.5625,-1 -2.6686,-0.097 -5.3372,-0.19299 -8.0059,-0.28906 C 1007.9543,560.47715 1001.4771,560.23995 995,560 c 0.006,1.09119 0.0116,2.18238 0.0176,3.30664 0.005,1.44987 0.009,2.89974 0.0137,4.34961 0.004,0.71704 0.008,1.43408 0.0127,2.17285 0.0118,5.13204 -0.31725,10.08408 -1.04394,15.1709 -2.64,0 -5.28,0 -8,0 -0.10903,-11.71812 -0.0991,-23.32221 1,-35 z"
     fill="#0a0a0a"
     id="path32" />
  <path
     d="m 1034,460 c 5.1356,2.56781 8.5707,6.08034 11.0977,11.24219 1.0723,3.27752 1.133,6.00252 1.0898,9.44531 -0.01,1.13824 -0.013,2.27648 -0.02,3.44922 C 1046,487 1046,487 1045,489 c -2.6486,0.59356 -5.292,0.74209 -8,1 0.035,-0.88043 0.07,-1.76086 0.1055,-2.66797 0.041,-1.74217 0.041,-1.74217 0.082,-3.51953 0.035,-1.14856 0.07,-2.29711 0.1055,-3.48047 -0.3439,-3.91115 -1.499,-6.53802 -4.293,-9.33203 -5.7228,-0.75137 -5.7228,-0.75137 -10.5195,2.02344 -3.3527,4.02321 -5.2502,8.33374 -7.3535,13.09375 -2.3118,4.95037 -4.6364,7.72563 -9.127,10.88281 -5.9588,1.98627 -12.61418,1.95433 -18.4375,-0.375 -6.23142,-6.3834 -7.97729,-12.52235 -7.875,-21.25 0.0642,-2.46336 0.17511,-4.9141 0.3125,-7.375 3.55643,-1.51821 6.11346,-2.22209 10,-2 -0.23977,0.84111 -0.23977,0.84111 -0.48438,1.69922 -1.56241,6.9717 -0.84589,13.03988 2.48438,19.30078 0.99128,1.22458 0.99128,1.22458 2.92578,1.01953 1.18143,-0.10248 1.18143,-0.10248 2.38672,-0.20703 0.77988,-0.0554 1.55977,-0.11086 2.36328,-0.16797 3.18092,-0.88211 4.28682,-2.04055 6.32422,-4.64453 1.2438,-2.56478 2.2343,-5.21331 3.25,-7.875 2.6292,-6.46505 5.1792,-11.0253 11.75,-14.125 4.3505,-1.45017 8.4533,-1.5107 13,-1 z"
     fill="#060606"
     id="path33" />
  <path
     d="m 663,970 c 0.27865,12.60097 -0.18573,25.11257 -0.9375,37.6875 -0.0436,0.7393 -0.0871,1.4787 -0.13202,2.2404 -0.4594,7.7141 -0.97474,15.4003 -1.93048,23.0721 -3.37097,1.4982 -5.20442,2 -9,2 -7.5309,-13.9828 -15.0336,-27.9791 -22.375,-42.0625 -0.5526,-1.05695 -1.10521,-2.1139 -1.67456,-3.20288 -0.507,-0.9759 -1.01401,-1.9518 -1.53638,-2.95728 -0.66588,-1.28016 -0.66588,-1.28016 -1.34521,-2.58618 C 623,982 623,982 622,979 c 2.97,-0.66 5.94,-1.32 9,-2 7.21951,13.56202 14.16396,27.2403 21,41 0.66,-15.18 1.32,-30.36 2,-46 8,-2 8,-2 9,-2 z"
     fill="#080808"
     id="path34" />
  <path
     d="m 108,437 c 2.97,0.33 5.94,0.66 9,1 -0.62221,3.79213 -1.24829,7.58361 -1.875,11.375 -0.17402,1.0609 -0.34805,2.1218 -0.52734,3.21484 C 113.52133,459.08768 112.34169,465.5516 111,472 99.531131,471.57255 88.455377,469.05521 77.25,466.75 75.232288,466.34003 73.214465,465.93061 71.196533,465.52173 65.462354,464.35749 59.730767,463.18091 54,462 53.237258,461.84304 52.474515,461.68607 51.68866,461.52435 44.455028,460.03536 37.224827,458.53114 30,457 c 0.66,-2.97 1.32,-5.94 2,-9 7.08016,-0.35059 13.367338,0.98305 20.25,2.5625 2.468037,0.54879 4.936831,1.09418 7.40625,1.63672 0.652648,0.14355 1.305297,0.2871 1.977722,0.435 8.676047,1.89248 17.396886,3.56059 26.116028,5.24078 1.218224,0.23519 1.218224,0.23519 2.46106,0.47513 4.595623,0.88695 9.192125,1.76907 13.78894,2.64987 1.32,-7.92 2.64,-15.84 4,-24 z"
     fill="#070707"
     id="path35" />
  <path
     d="m 715,47 c 2.64,0.66 5.28,1.32 8,2 -0.60703,6.677289 -2.77631,12.70128 -5,19 5.445,1.485 5.445,1.485 11,3 -0.875,5.75 -0.875,5.75 -2,8 -3.94926,-0.551059 -7.3492,-1.389354 -11,-3 -3.5094,7.584578 -6.42258,15.325799 -9.25,23.1875 -0.46347,1.25719 -0.92701,2.51435 -1.39063,3.77148 -0.43312,1.20334 -0.86625,2.40668 -1.3125,3.64649 -0.39348,1.08434 -0.78697,2.16869 -1.19238,3.28589 -0.87517,3.18387 -1.01608,5.82415 -0.85449,9.10864 2.64,1.32 5.28,2.64 8,4 -0.66,2.64 -1.32,5.28 -2,8 -10.75718,-2.75718 -10.75718,-2.75718 -15,-7 -2.4656,-4.9312 -1.47082,-11.2027 -0.12305,-16.34766 1.21084,-3.58602 2.51487,-7.11955 3.87305,-10.65234 0.44344,-1.193672 0.88688,-2.387344 1.34375,-3.617188 0.87237,-2.345134 1.75172,-4.687686 2.63867,-7.027343 C 702.53387,81.586772 704.27034,76.795112 706,72 c -2.64,-0.66 -5.28,-1.32 -8,-2 0.875,-5.75 0.875,-5.75 2,-8 4.455,0.99 4.455,0.99 9,2 0.18176,-0.640664 0.36352,-1.281328 0.55078,-1.941406 C 711.0627,56.856041 712.75001,51.928557 715,47 Z"
     fill="#070707"
     id="path36" />
  <path
     d="m 784,918 c 1.95578,2.39741 3,3.87587 3,7 -1.19625,0.2475 -2.3925,0.495 -3.625,0.75 -4.06941,1.01193 -7.0453,2.65121 -10.375,5.25 -1.44431,2.88862 -1.37689,4.79648 -1,8 2.01732,2.76824 3.60326,4.70931 7.06348,5.42944 2.42597,0.14448 4.81904,0.16899 7.24902,0.13306 6.81521,-0.0699 11.94098,0.52446 17.6875,4.4375 2.05859,2.03516 2.05859,2.03516 3.4375,4.0625 0.47309,0.6716 0.94617,1.3432 1.43359,2.03516 2.36467,3.98474 2.57632,7.35362 2.12891,11.90234 -2.7046,6.83405 -7.67768,10.59826 -14,14 -3.67554,1.55503 -7.0136,2.75418 -11,2 -2.24243,-2.86103 -3,-4.34076 -3,-8 0.56848,-0.098 1.13695,-0.19594 1.72266,-0.29688 5.50223,-1.06554 9.60418,-2.58768 14.27734,-5.70312 1.54587,-3.09174 1.29359,-5.5943 1,-9 -1.86708,-2.36497 -3.32061,-3.66031 -6,-5 -3.69534,-0.20055 -7.38439,-0.34526 -11.08398,-0.42969 -5.9278,-0.23496 -10.91933,-1.0605 -15.62305,-5 -4.09704,-5.35654 -5.86845,-9.56627 -5.65625,-16.30078 0.8171,-5.1047 3.67238,-7.97851 7.67578,-11.03516 C 774.10183,919.10963 778.13463,916.68328 784,918 Z"
     fill="#080808"
     id="path37" />
  <path
     d="m 930,191 c 2.5,2.25 2.5,2.25 5,5 0,1.32 0,2.64 0,4 -2.40625,2.35937 -2.40625,2.35937 -5.5,4.75 -1.02094,0.79922 -2.04188,1.59844 -3.09375,2.42187 -0.79406,0.60329 -1.58813,1.20657 -2.40625,1.82813 0.58196,3.09042 1.44182,4.81703 3.5625,7.125 C 930,219 930,219 930,221 c -2,1.625 -2,1.625 -4,3 -3.3618,-1.44077 -5.59156,-3.2475 -8,-6 0,-0.66 0,-1.32 0,-2 -4.52606,2.46876 -8.16721,5.60052 -12,9 -3.89134,3.43498 -7.77598,6.85427 -11.83594,10.08984 -0.59683,0.48147 -1.19367,0.96293 -1.80859,1.45899 -1.12547,0.90316 -2.26052,1.79455 -3.40625,2.67187 -2.68625,2.17702 -3.88969,3.58685 -4.92188,6.92383 -0.0365,3.81639 1.45455,5.10844 3.97266,7.85547 0,0.66 0,1.32 0,2 -4.47059,4 -4.47059,4 -7,4 -3.65896,-4.03976 -7.43668,-8.62298 -7.6875,-14.25 1.28696,-7.01979 5.72252,-10.98999 11,-15.3125 1.24118,-1.04262 2.48205,-2.0856 3.72266,-3.12891 0.64469,-0.5377 1.28938,-1.0754 1.95361,-1.62939 3.43912,-2.87136 6.85521,-5.7687 10.26123,-8.6792 0.64364,-0.53955 1.28729,-1.07911 1.95044,-1.63501 0.89852,-0.76848 0.89852,-0.76848 1.81518,-1.55249 0.52884,-0.44731 1.05768,-0.89461 1.60254,-1.35547 1.58862,-1.67506 2.44588,-3.35815 3.38184,-5.45703 -1.32,-1.32 -2.64,-2.64 -4,-4 1.24546,-3.73639 2.63405,-4.18757 6,-6 2.475,2.475 2.475,2.475 5,5 3.71045,-1.57781 6.29906,-3.90703 9.25,-6.625 0.89203,-0.81727 1.78406,-1.63453 2.70312,-2.47656 C 928.62859,192.27195 929.30406,191.64547 930,191 Z"
     fill="#070707"
     id="path38" />
  <path
     d="m 407,941 c 2.97,0.66 5.94,1.32 9,2 -0.58563,4.56789 -1.82353,8.6403 -3.37891,12.94922 -0.76602,2.17219 -0.76602,2.17219 -0.62109,5.05078 3.3,0.99 6.6,1.98 10,3 -1,5 -1,5 -2,8 -1.41682,-0.31182 -2.83345,-0.62449 -4.25,-0.9375 -0.78891,-0.17402 -1.57781,-0.34805 -2.39063,-0.52734 C 411.23112,970.05242 409.1161,969.53293 407,969 c -0.23461,1.2143 -0.46922,2.42859 -0.71094,3.67969 -1.66964,7.52371 -4.52848,14.68385 -7.1875,21.90234 C 396.23153,1002.604 396.23153,1002.604 396,1011 c 2.31,1.32 4.62,2.64 7,4 -0.875,4.75 -0.875,4.75 -2,7 -6.14068,-0.5991 -10.95301,-2.5568 -14.9375,-7.3125 -3.06838,-7.7612 0.43181,-14.8444 3.125,-22.25 0.40984,-1.15355 0.81968,-2.3071 1.24194,-3.4956 1.18062,-3.31749 2.37463,-6.62991 3.57056,-9.9419 0.57163,-1.605 1.14214,-3.2104 1.71094,-4.81641 1.08634,-3.06485 2.18273,-6.12589 3.28906,-9.18359 -0.94875,-0.14437 -1.8975,-0.28875 -2.875,-0.4375 C 393,964 393,964 391,963 c 0.66,-2.64 1.32,-5.28 2,-8 2.97,0.99 5.94,1.98 9,3 0.0825,-0.76312 0.165,-1.52625 0.25,-2.3125 1.03778,-5.10241 2.89287,-9.83305 4.75,-14.6875 z"
     fill="#090909"
     id="path39" />
  <path
     d="m 363,84 c 8.39467,6.963018 14.77417,23.7613 16.33594,34.25781 0.0763,3.64918 -0.23497,5.58401 -2.21094,8.67969 -2.87032,2.7859 -3.80607,3.01998 -7.875,3.5625 -2.48595,-0.0539 -3.84171,-0.21749 -5.89844,-1.64063 -8.17976,-8.9155 -15.06609,-24.40682 -16.03906,-36.42187 0.71128,-3.556401 0.98607,-4.134077 3.5625,-6.375 C 355.56604,82.96641 357.4326,82.422571 363,84 Z"
     fill="#fafafa"
     id="path40" />
  <path
     d="m 982,657 c 7.32031,0.59136 13.95799,2.6584 20.9375,4.875 1.1286,0.35191 2.2571,0.70383 3.4199,1.06641 6.2375,1.95216 12.4495,3.97014 18.6426,6.05859 0.3882,6.67397 0.5153,10.82069 -4,16 -8.232,4.11601 -19.8008,-0.68168 -27.93848,-3.29443 C 986.75265,679.54632 980.29495,677.14059 977,671 c -0.87041,-4.35207 0.24691,-6.7354 2.5,-10.375 0.8205,-1.21708 1.64972,-2.42853 2.5,-3.625 z"
     fill="#f9f9f9"
     id="path41" />
  <path
     d="m 275,130 c 1.93115,1.8291 1.93115,1.8291 3.58594,4.39062 0.61746,0.93208 1.23492,1.86415 1.87109,2.82447 0.63293,1.00152 1.26586,2.00304 1.91797,3.03491 0.65613,1.00603 1.31227,2.01206 1.98828,3.04858 1.29996,1.99387 2.5928,3.9924 3.87793,5.99585 1.4697,2.26087 2.97673,4.47186 4.54785,6.6626 0.72961,1.02481 1.45922,2.04961 2.21094,3.10547 0.92813,1.28584 0.92813,1.28584 1.875,2.59766 C 298,164 298,164 297.83984,166.63672 296.46719,170.4993 293.64377,173.17812 290,175 c -3.26861,0.44863 -5.82775,0.74409 -8.70581,-1.08276 -4.38255,-3.80713 -7.72061,-7.83411 -10.91919,-12.66724 -0.47147,-0.70375 -0.94295,-1.4075 -1.42871,-2.13257 -8.80912,-13.3283 -8.80912,-13.3283 -9.13379,-19.92993 2.48609,-6.67319 8.15344,-9.95219 15.1875,-9.1875 z"
     fill="#fafafa"
     id="path42" />
  <path
     d="m 817,869 c 4.2521,4.12325 8.13636,8.51283 12,13 0.54269,-0.43313 1.08539,-0.86625 1.64453,-1.3125 0.71543,-0.55688 1.43086,-1.11375 2.16797,-1.6875 1.06154,-0.83531 1.06154,-0.83531 2.14453,-1.6875 C 837,876 837,876 840,876 c 3,3.33333 3,3.33333 3,6 -1.75,1.50781 -1.75,1.50781 -4,3.125 -0.7425,0.53883 -1.485,1.07766 -2.25,1.63281 -0.5775,0.40992 -1.155,0.81985 -1.75,1.24219 2.35764,4.26924 5.29824,7.85101 8.5,11.5 3.24081,3.71493 6.4667,7.429 9.55859,11.26953 0.48469,0.59555 0.96938,1.1911 1.46875,1.80469 0.91997,1.13403 1.83064,2.2757 2.73047,3.42578 1.98497,2.42471 3.42274,3.88221 6.39063,4.97656 3.43883,0.0343 4.85849,-1.75301 7.35156,-3.97656 0.66,0 1.32,0 2,0 1.38938,1.96148 2.72604,3.96167 4,6 -1.24688,0.9624 -2.49765,1.91974 -3.75,2.875 -0.69609,0.53367 -1.39219,1.06734 -2.10938,1.61719 -3.40181,2.39617 -5.28563,3.52364 -9.51562,3.44531 -8.09936,-2.09466 -12.33136,-9.0812 -17.33496,-15.34473 -2.76576,-3.4148 -5.63393,-6.74457 -8.48413,-10.08886 C 833.14795,902.37839 830.54637,899.21709 828,896 c -1.11375,0.46406 -1.11375,0.46406 -2.25,0.9375 -2.25692,0.87199 -4.39502,1.53917 -6.75,2.0625 -3,-3.75 -3,-3.75 -3,-6 1.62553,-1.70681 3.29116,-3.3766 5,-5 -0.64969,-0.74766 -1.29938,-1.49531 -1.96875,-2.26563 -0.83531,-0.98484 -1.67062,-1.96968 -2.53125,-2.98437 -0.83531,-0.97453 -1.67062,-1.94906 -2.53125,-2.95313 C 812,877 812,877 812,873 c 2.5,-2.25 2.5,-2.25 5,-4 z"
     fill="#070707"
     id="path43" />
  <path
     d="m 76,313 c 4.018243,0.62321 7.207941,1.9075 10.847656,3.70312 1.721865,0.84209 1.721865,0.84209 3.478516,1.70118 0.607712,0.30027 1.215425,0.60054 1.841553,0.90991 3.262109,1.61109 6.533769,3.20256 9.804935,4.79516 0.67125,0.32727 1.34249,0.65453 2.03408,0.9917 6.62392,3.22174 13.30239,6.31858 19.99326,9.39893 14.42258,6.65062 28.71849,13.55262 43,20.5 -1.875,5.75 -1.875,5.75 -3,8 -4.18623,-0.63053 -7.49817,-2.05166 -11.28516,-3.92188 -0.60462,-0.29607 -1.20925,-0.59214 -1.8322,-0.89718 -1.30316,-0.63858 -2.60511,-1.27964 -3.90596,-1.92294 -3.49249,-1.72639 -6.99454,-3.43316 -10.49621,-5.14081 -1.07017,-0.52254 -1.07017,-0.52254 -2.16196,-1.05564 C 127.50373,346.74179 120.63552,343.54558 113.75,340.375 100.08807,334.07635 86.534387,327.56739 73,321 c 0.547237,-3.37463 1.0549,-5.08235 3,-8 z"
     fill="#070707"
     id="path44" />
  <path
     d="m 498,22 c 1.55201,11.926184 2.92145,23.859715 4.01953,35.835937 0.0865,0.938307 0.173,1.876614 0.26212,2.843354 0.43491,4.736056 0.85964,9.472779 1.27206,14.210846 0.16025,1.771017 0.32072,3.542014 0.48145,5.312988 0.0677,0.81367 0.13532,1.627341 0.20503,2.465668 C 504.62116,86.787748 505.17822,90.219174 507,94 c 2.64,0.33 5.28,0.66 8,1 0,2.64 0,5.28 0,8 -2.06132,0.10865 -4.12431,0.18588 -6.1875,0.25 -1.14855,0.0464 -2.29711,0.0928 -3.48047,0.14063 C 501.26557,102.9139 499.77673,101.97894 497,99 c -1.57562,-4.009195 -2.35076,-7.75568 -2.77783,-12.030273 -0.11998,-1.168515 -0.23995,-2.33703 -0.36356,-3.540955 -0.12092,-1.250089 -0.24184,-2.500177 -0.36642,-3.788147 -0.19552,-1.949334 -0.19552,-1.949334 -0.39499,-3.938049 -0.27491,-2.746474 -0.54502,-5.493363 -0.81156,-8.240662 -0.33932,-3.494973 -0.68909,-6.988799 -1.04236,-10.482387 -0.33882,-3.362466 -0.66969,-6.725697 -1.00109,-10.088902 -0.12497,-1.241992 -0.24994,-2.483983 -0.3787,-3.763611 C 489.21535,36.392195 488.8261,29.766193 489,23 c 3.15337,-0.700748 5.72725,-1 9,-1 z"
     fill="#070707"
     id="path45" />
  <path
     d="m 955,761 c 4.11432,1.42419 7.37911,3.50591 10.08203,6.99609 2.03448,4.44123 1.60688,9.2725 0.91797,14.00391 -2.02326,4.5321 -4.7175,7.09525 -9.08203,9.30078 -4.34692,1.58472 -7.92019,1.54058 -12.09766,-0.21875 C 940.28442,788.51501 937.54917,786.13162 936,781 c -0.64571,-5.0104 -0.58717,-8.7805 1.625,-13.375 5.28164,-5.83761 9.65262,-7.75002 17.375,-6.625 z"
     fill="#060606"
     id="path46" />
  <path
     d="m 143.375,762.625 c 3.58408,3.24274 6.22035,5.83976 7.00781,10.77344 0.25696,5.70447 -0.49785,9.1916 -4.38281,13.60156 -3.80296,3.61082 -6.19766,4.56867 -11.4375,4.5625 -4.0606,-0.12402 -7.02292,-0.23243 -10.25,-2.8125 -4.29821,-5.11139 -4.917,-9.0684 -4.83594,-15.69141 0.8491,-4.96152 3.62648,-8.01279 7.52344,-11.05859 5.5824,-1.8608 11.05132,-1.93825 16.375,0.625 z"
     fill="#050505"
     id="path47" />
  <path
     d="m 940,234 c 3,1 3,1 5,4 -0.34606,2.28397 -0.96705,3.93409 -2,6 0.72574,0.0838 1.45148,0.16758 2.19922,0.25391 3.39588,0.90462 5.03581,2.31984 7.61328,4.68359 0.7902,0.71027 1.58039,1.42055 2.39453,2.15234 C 957,253 957,253 957,255 c -1.96148,1.38938 -3.96167,2.72604 -6,4 -3.83924,-1.56413 -6.09936,-4.09936 -9,-7 -1.64889,-1.02904 -3.31331,-2.03416 -5,-3 -0.94617,0.71543 -1.89234,1.43086 -2.86719,2.16797 -8.29671,6.25622 -16.65256,12.4183 -25.10303,18.46558 -3.75937,2.69646 -7.45115,5.43014 -11.02978,8.36645 -3.3562,-1.38877 -5.07299,-2.91678 -7,-6 0,-0.66 0,-1.32 0,-2 1.35083,-1.19824 1.35083,-1.19824 3.26953,-2.54688 0.71462,-0.50821 1.42925,-1.01642 2.16553,-1.54003 0.78455,-0.54882 1.56911,-1.09764 2.37744,-1.66309 1.65559,-1.17618 3.31052,-2.35329 4.96484,-3.53125 0.86094,-0.61102 1.72187,-1.22203 2.60889,-1.85156 4.19445,-2.99638 8.3421,-6.05521 12.48877,-9.11719 0.79253,-0.58242 1.58506,-1.16483 2.40161,-1.76489 3.52527,-2.59569 7.03165,-5.20736 10.4812,-7.90308 0.55575,-0.43087 1.1115,-0.86174 1.68408,-1.30566 1.44272,-1.12397 2.87585,-2.2602 4.30811,-3.39746 0.7425,-0.45504 1.485,-0.91008 2.25,-1.37891 z"
     fill="#070707"
     id="path48" />
  <path
     d="m 319,92 c 3.09169,2.529565 3.90931,5.224546 5,9 -0.93973,0.61488 -0.93973,0.61488 -1.89844,1.24219 -0.81726,0.53883 -1.63453,1.07765 -2.47656,1.63281 -0.81211,0.53367 -1.62422,1.06734 -2.46094,1.61719 -2.24,1.46646 -2.24,1.46646 -4.16406,3.50781 0.0775,6.14279 3.56683,11.17807 6.5,16.375 0.5352,0.96793 1.07041,1.93585 1.62183,2.9331 2.5209,4.54641 5.08383,9.06499 7.7102,13.55127 0.63229,1.08983 0.63229,1.08983 1.27734,2.20166 0.78404,1.34501 1.57913,2.68366 2.38672,4.01465 2.53338,4.34076 2.53338,4.34076 2.38672,7.24463 -1.356,2.58 -3.31913,3.42912 -5.88281,4.67969 -0.66,0 -1.32,0 -2,0 -0.33097,-0.61182 -0.66193,-1.22364 -1.00293,-1.854 -6.1734,-11.40997 -12.3529,-22.81659 -18.55957,-34.2085 -0.48759,-0.89606 -0.97518,-1.79212 -1.47754,-2.71533 -0.46245,-0.84804 -0.9249,-1.69609 -1.40137,-2.56983 -0.43328,-0.79551 -0.86657,-1.59102 -1.31299,-2.41064 -1.15756,-2.08326 -2.3649,-4.12858 -3.58544,-6.17529 C 298,107 298,107 298,104 c 2.8125,-1.125 2.8125,-1.125 6,-2 0.99,0.66 1.98,1.32 3,2 0.44731,-0.61488 0.89461,-1.22977 1.35547,-1.86328 C 314.36028,94.108963 314.36028,94.108963 319,92 Z"
     fill="#070707"
     id="path49" />
  <path
     d="m 746,936 c 3.09169,2.52957 3.90931,5.22455 5,9 -0.69867,0.40992 -1.39734,0.81984 -2.11719,1.24219 -0.91008,0.53883 -1.82015,1.07765 -2.75781,1.63281 -1.35738,0.80051 -1.35738,0.80051 -2.74219,1.61719 -2.44884,1.42756 -2.44884,1.42756 -4.38281,3.50781 0.35775,4.22214 2.12621,7.64833 3.98437,11.41016 0.29748,0.60815 0.59495,1.2163 0.90143,1.84288 0.94927,1.93922 1.90607,3.8746 2.8642,5.80946 4.38061,8.87312 8.57566,17.7399 12.25,26.9375 -5.625,3 -5.625,3 -9,3 -14.5499,-29.8171 -14.5499,-29.8171 -20.9375,-43.8125 -0.41814,-0.91088 -0.83628,-1.82177 -1.26709,-2.76025 -0.37463,-0.82806 -0.74927,-1.65613 -1.13525,-2.50928 -0.48522,-1.07085 -0.48522,-1.07085 -0.98023,-2.16333 C 725,949 725,949 725,947 c 2.8125,-1.125 2.8125,-1.125 6,-2 0.99,0.66 1.98,1.32 3,2 0.44731,-0.54269 0.89461,-1.08539 1.35547,-1.64453 C 738.60404,941.51121 741.38686,938.23667 746,936 Z"
     fill="#070707"
     id="path50" />
  <path
     d="m 525,39 c 3.3,0 6.6,0 10,0 0.28729,7.364816 0.57204,14.729724 0.85449,22.094727 0.0963,2.502305 0.19332,5.004584 0.29102,7.506835 0.14081,3.609308 0.27913,7.218704 0.41699,10.828125 0.0438,1.107698 0.0875,2.215395 0.13257,3.356659 0.24206,6.410213 0.34655,12.79885 0.30493,19.213654 -3.3,0 -6.6,0 -10,0 -0.28826,-6.882593 -0.57295,-13.765322 -0.85449,-20.648193 -0.096,-2.336303 -0.19304,-4.672567 -0.29102,-7.008789 C 524.85357,50.448657 524.85357,50.448657 525,39 Z"
     fill="#0c0c0c"
     id="path51" />
  <path
     d="m 601,981 c 2.97,0 5.94,0 9,0 0.9156,7.23204 1.82853,14.46442 2.73806,21.6972 0.42243,3.3586 0.84577,6.7171 1.27122,10.0753 0.48922,3.8619 0.97445,7.7244 1.45947,11.5869 0.15312,1.2043 0.30623,2.4085 0.46399,3.6493 0.14015,1.1209 0.28029,2.2417 0.42468,3.3966 0.12436,0.9859 0.24871,1.9719 0.37683,2.9877 C 617,1037 617,1037 617,1041 c -4.455,0.495 -4.455,0.495 -9,1 -1.00657,-7.0787 -2.0023,-14.1589 -2.99072,-21.2402 -0.33706,-2.4057 -0.67654,-4.8109 -1.01856,-7.2159 -0.49297,-3.4695 -0.97703,-6.9401 -1.45947,-10.4111 -0.15312,-1.0639 -0.30623,-2.1279 -0.46399,-3.22408 C 601.19231,993.53876 600.85492,987.43012 601,981 Z"
     fill="#060606"
     id="path52" />
  <path
     d="m 804,902 c 4.30747,4.02982 7.6593,8.44433 11.0625,13.25 0.56147,0.78488 1.12293,1.56976 1.70142,2.37842 4.39728,6.1573 8.76269,12.33802 13.10156,18.53662 2.90463,4.13994 5.9028,8.18153 9.01758,12.1665 C 840,950 840,950 840,952 c -5.41176,4 -5.41176,4 -8,4 -1.22998,-1.49023 -1.22998,-1.49023 -2.61719,-3.59375 -0.51852,-0.77521 -1.03705,-1.55042 -1.57129,-2.34912 -0.55655,-0.84385 -1.1131,-1.68771 -1.68652,-2.55713 -4.30453,-6.41833 -8.69383,-12.7255 -13.375,-18.875 -3.74104,-4.94138 -7.4665,-9.88911 -11.0625,-14.9375 -0.73863,-1.02738 -1.47727,-2.05477 -2.23828,-3.11328 C 798.97098,909.72473 798.49273,908.87523 798,908 c 1.24546,-3.73639 2.63405,-4.18757 6,-6 z"
     fill="#060606"
     id="path53" />
  <path
     d="m 659,83 c 7.13695,3.261861 7.13695,3.261861 8.83984,6.691406 0.24268,3.49813 -0.67421,6.654694 -1.58984,9.996094 -0.17016,0.689 -0.34031,1.37801 -0.51563,2.08789 -0.53125,1.98633 -0.53125,1.98633 -1.73437,5.22461 -2.77052,0.92351 -4.56689,1.1633 -7.4375,1.1875 -0.76184,0.0142 -1.52367,0.0284 -2.30859,0.043 C 651.73389,107.97279 650.15512,107.30998 648,106 645.76372,103.09283 645.53056,99.916775 645.60547,96.300781 646.37326,91.823285 648.55838,87.795612 651,84 c 2.93301,-1.466504 4.72037,-1.364403 8,-1 z"
     fill="#f8f8f8"
     id="path54" />
  <path
     d="m 1003,603 c 7.6168,2.61682 7.6168,2.61682 10,5 0.8567,6.54463 -0.3243,10.60126 -4,16 -2.0422,-0.11514 -4.0838,-0.24257 -6.125,-0.375 -1.137,-0.0696 -2.2739,-0.13922 -3.44531,-0.21094 C 995.99908,622.99989 993.16742,622.38163 990,621 c -1.45371,-4.36113 -1.61627,-8.44683 -1,-13 3.52191,-5.6805 7.83185,-6.11425 14,-5 z"
     fill="#f9f9f9"
     id="path55" />
  <path
     d="m 759,92 c 2.75329,1.795624 4.52627,3.052549 6,6 0.74351,5.94809 -1.64597,10.68242 -4,16 -4.55316,-0.61812 -8.2846,-2.46766 -12.3125,-4.5625 -0.64518,-0.32935 -1.29035,-0.65871 -1.95508,-0.99805 C 745.15215,107.63176 743.57568,106.81662 742,106 c 6.92916,-14.853461 6.92916,-14.853461 17,-14 z"
     fill="#f7f7f7"
     id="path56" />
  <path
     d="m 1021,416 c 2.8703,1.79394 4.4913,2.98263 6,6 0.4669,4.12416 0.5328,6.23633 -1.875,9.6875 -4.1985,3.1069 -9.7456,6.3125 -15.125,6.3125 -0.6725,-2.58194 -1.3382,-5.16532 -2,-7.75 -0.2862,-1.09441 -0.2862,-1.09441 -0.5781,-2.21094 C 1006.5348,424.55428 1006,421.61876 1006,418 c 4.9792,-2.04274 9.6766,-2.8235 15,-2 z"
     fill="#f7f7f7"
     id="path57" />
  <path
     d="m 966,282 c 2.9852,3.13446 3.91372,5.06818 4.3125,9.375 -1.93448,5.34285 -5.68618,8.43711 -10.3125,11.625 -1.32356,0.37024 -2.65651,0.71033 -4,1 -1.50815,-2.43279 -3.00664,-4.87066 -4.5,-7.3125 -0.42926,-0.69029 -0.85852,-1.38059 -1.30078,-2.0918 -0.40606,-0.66709 -0.81211,-1.33418 -1.23047,-2.02148 -0.37705,-0.61271 -0.7541,-1.22542 -1.14258,-1.85669 C 947,289 947,289 947,286 c 1.24736,-0.65093 2.49802,-1.29552 3.75,-1.9375 0.69609,-0.35965 1.39219,-0.7193 2.10937,-1.08984 C 957.49506,280.8663 961.00946,280.66325 966,282 Z"
     fill="#f7f7f7"
     id="path58" />
  <path
     d="m 311.625,920.8125 c 4.0208,1.41473 5.85518,2.75139 8.375,6.1875 0.5485,4.86875 -0.55482,7.69782 -3,11.875 -0.55688,0.9668 -1.11375,1.93359 -1.6875,2.92969 -0.64969,1.08668 -0.64969,1.08668 -1.3125,2.19531 -5.83152,-3.11291 -11.587,-6.19627 -17,-10 3.20254,-6.40508 6.8878,-12.7873 14.625,-13.1875 z"
     fill="#f6f6f6"
     id="path59" />
  <path
     d="m 700,966 c 5.11555,3.94696 6.90837,9.09422 9,15 -2.60197,1.00606 -5.20629,2.00503 -7.8125,3 -1.10698,0.42926 -1.10698,0.42926 -2.23633,0.86719 -0.71221,0.2707 -1.42441,0.5414 -2.1582,0.82031 -0.6546,0.25137 -1.30921,0.50273 -1.98364,0.76172 C 693,987 693,987 690,987 c -2.37926,-5.50204 -2.8837,-11.09946 -2,-17 3.31045,-4.31361 6.74193,-5.01472 12,-4 z"
     fill="#fbfbfb"
     id="path60" />
  <path
     d="m 421,74 c 0.66,2.64 1.32,5.28 2,8 -8.92035,3.083126 -17.78774,5.889928 -27,8 -0.99,-2.97 -1.98,-5.94 -3,-9 2.0043,-0.6681 4.0091,-1.334708 6.01562,-1.996094 2.26942,-0.763402 4.52584,-1.548703 6.78125,-2.351562 1.33854,-0.467469 2.67708,-0.934917 4.01563,-1.402344 0.6459,-0.234851 1.2918,-0.469702 1.95728,-0.71167 C 415.55107,73.231938 416.97925,72.994813 421,74 Z"
     fill="#0c0c0c"
     id="path61" />
  <path
     d="m 71,595 c 1.757284,9.43474 3.174167,18.38211 3,28 -2.97,0.33 -5.94,0.66 -9,1 -0.505312,-3.72847 -1.003313,-7.45788 -1.5,-11.1875 -0.143086,-1.0551 -0.286172,-2.11019 -0.433594,-3.19727 -0.135351,-1.02158 -0.270703,-2.04316 -0.410156,-3.0957 -0.125684,-0.93739 -0.251367,-1.87478 -0.380859,-2.84057 C 62.009953,601.09682 61.950639,598.59349 62,596 c 3.153368,-0.70075 5.72725,-1 9,-1 z"
     fill="#090909"
     id="path62" />
  <path
     d="m 527.03125,20.867187 c 0.81469,0.0026 1.62937,0.0052 2.46875,0.0078 0.81469,-0.0026 1.62937,-0.0052 2.46875,-0.0078 C 534,21 534,21 535,22 c 0.37086,5.841059 0.37086,5.841059 0,8 -3.46924,2.312825 -4.92206,2.424785 -9,2 -1.9375,-1.0625 -1.9375,-1.0625 -3,-3 0.54516,-7.904877 0.54516,-7.904877 4.03125,-8.132813 z"
     fill="#0c0c0c"
     id="path63" />
  <path
     d="m 607,963 c 2,2 2,2 2.19531,3.94531 -0.0651,2.01823 -0.13021,4.03646 -0.19531,6.05469 -3.21451,1.60726 -6.43613,1.05748 -10,1 -1.5215,-3.043 -1.23899,-5.65409 -1,-9 3.45246,-2.30164 4.94739,-2.3449 9,-2 z"
     fill="#0b0b0b"
     id="path64" />
  <path
     d="M 795.0625,888.125 C 798,889 798,889 800,892 c -0.15723,3.1445 -0.59008,4.5608 -2.75,6.875 C 795,900 795,900 792.375,899.875 790,899 790,899 788,896 c 0.20749,-2.76653 0.70279,-4.53072 2.1875,-6.875 C 792,888 792,888 795.0625,888.125 Z"
     fill="#0c0c0c"
     id="path65" />
  <path
     d="m 308,231 c 0.66,0.33 1.32,0.66 2,1 0,0.99 0,1.98 0,3 -2.64,0.66 -5.28,1.32 -8,2 2,-2 4,-4 6,-6 z"
     fill="#827b69"
     id="path66" />
</svg>
